<svg xmlns="http://www.w3.org/2000/svg" viewBox="0 0 24 32"><path d="M23.9 8.4c0-.1-.1-.2-.1-.2l-8-8c-.1-.1-.1-.1-.2-.1-.1-.1-.2-.1-.3-.1H.7C.3 0 0 .3 0 .7v30.7c0 .3.3.6.7.6h22.7c.4 0 .7-.3.7-.7V8.7c-.1-.1-.1-.2-.2-.3zM16 2.3L21.7 8H16V2.3zM1.3 30.7V1.3h13.3v7.3c0 .4.3.7.7.7h7.3v21.3H1.3v.1z" fill-rule="evenodd" clip-rule="evenodd" fill="#3e3832"/><path d="M4.4 13.3h2.1c1.5 0 2.5.5 2.5 2s-1.1 2.1-2.5 2.1h-.9v2.4H4.4v-6.5zm2 3.3c1 0 1.4-.4 1.4-1.2 0-.8-.5-1.1-1.5-1.1h-.7v2.3h.8zM10.2 13.3H12c2 0 3.2 1.1 3.2 3.2 0 2.2-1.2 3.3-3.1 3.3h-1.8v-6.5zm1.7 5.6c1.3 0 2.1-.7 2.1-2.4 0-1.6-.8-2.3-2.1-2.3h-.5v4.7h.5zM16.5 13.3h4v1h-2.8v1.9H20v1h-2.4v2.7h-1.2v-6.6z"/></svg>