<svg version="1.1" id="Layer_1" xmlns="http://www.w3.org/2000/svg" x="0" y="0" viewBox="0 0 88 88" xml:space="preserve" enable-background="new 0 0 88 88"><style>.st4{fill:#fff}.st7{fill:#505557}</style><g id="Oval-Copy-8"><circle cx="44" cy="44" r="40" fill="#c6c2bf"/><path d="M44 0C19.7 0 0 19.7 0 44s19.7 44 44 44 44-19.7 44-44S68.3 0 44 0zm0 84C21.9 84 4 66.1 4 44S21.9 4 44 4s40 17.9 40 40-17.9 40-40 40z" fill="#78706a"/></g><path d="M60.7 18H28.4c-1.3 0-2.4 1.2-2.4 2.7V67c0 .3 0 .6.1.8.1.4.3.8.6 1.1l.2.2c.4.3.8.6 1.3.6h32.5c1.3 0 2.4-1.2 2.4-2.7V20.7c0-1.5-1.1-2.7-2.4-2.7z" fill="#515658" id="Fill-102"/><g id="farger_x2F_-ark_x2F_-lys-grå"><defs><filter id="Adobe_OpacityMaskFilter" filterUnits="userSpaceOnUse" x="25.1" y="15.6" width="38" height="56"><feColorMatrix values="1 0 0 0 0 0 1 0 0 0 0 0 1 0 0 0 0 0 1 0"/></filter></defs><mask maskUnits="userSpaceOnUse" x="25.1" y="15.6" width="38" height="56" id="mask-2_1_"><g filter="url(#Adobe_OpacityMaskFilter)"><path id="path-1_1_" class="st4" d="M29.4 29.4v34.2c0 1.2.9 2.2 1.9 2.2H57c1.1 0 1.9-1 1.9-2.2V24.1c0-1.2-.9-2.2-1.9-2.2H36.5l-7.1 7.5z"/></g></mask><g id="V_x2699__xFE0F__x2F_farger_x2F_-ark_x2F_-hvit" mask="url(#mask-2_1_)"><path class="st4" d="M29.4 21.9h38v56h-38z" transform="translate(-4.375 -6.288)"/></g></g><path d="M36.5 21.9v5.3c0 1.3-.9 2.3-2 2.3h-5.1l7.1-7.6z" fill="#c9c9c9" id="Fill-59"/><g id="_xA7_-copy-9" transform="translate(39 29)"><path class="st7" d="M.6 17.1l1.9-.3c.2.9.5 1.6.9 2 .4.4 1 .6 1.7.6s1.3-.2 1.7-.6c.4-.4.6-.8.6-1.3 0-.4-.1-.7-.4-1-.4-.5-1.6-1.4-3.5-2.7-1-.7-1.7-1.2-2.1-1.6s-.7-.8-1-1.3C.1 10.3 0 9.8 0 9.3c0-.7.2-1.3.6-1.9s1-1 1.7-1.2c-.5-.5-.8-1-1-1.4S1 3.9 1 3.5c0-1 .3-1.8 1-2.5s1.6-1 2.7-1C6 0 7 .3 7.7 1S9 2.6 9.1 3.8L7.2 4c-.2-.9-.4-1.5-.8-1.9s-.8-.5-1.5-.5c-.6 0-1.1.2-1.5.5s-.6.8-.6 1.3c0 .4.1.7.4 1 .4.5 1.4 1.3 3.2 2.4 1.1.7 1.8 1.2 2.2 1.5.5.4.9.9 1.1 1.4.2.5.3 1 .3 1.5 0 .8-.3 1.5-.8 2.1-.3.3-.8.7-1.6 1 .6.4 1 .9 1.2 1.4.3.5.4 1.1.4 1.6 0 .6-.2 1.2-.5 1.8-.3.6-.8 1-1.5 1.3s-1.3.6-2 .6c-1.3 0-2.4-.3-3.1-1S.8 18.3.6 17.1zm6.1-3.5c.5-.3.9-.6 1.1-1s.4-.7.4-1.1c0-.4-.2-.9-.5-1.3-.4-.4-1.1-1-2.3-1.8-1-.6-1.7-1.1-2.2-1.5-.6.3-1 .7-1.2 1s-.3.7-.3 1.1c0 .5.2.9.5 1.3s1 1 2.1 1.7c.9.6 1.7 1.1 2.4 1.6z" id="_xA7_-copy-3"/></g><path class="st7" d="M38 58.7v-.8h1.3v-3.8h-1.1v-.6c.6-.1 1-.3 1.3-.5h.8v4.9h1.1v.8H38zm6.6 0v-1.5h-2.5v-.7l2.3-3.5h1.2v3.4h.7v.8h-.7v1.5h-1zm-1.5-2.3h1.5v-1.3-1.2c-.1.3-.3.6-.5.9l-1 1.6zm5.2 2.4c-.8 0-1.3-.5-1.3-1.3 0-.9.8-1.4 2.6-1.6 0-.5-.2-.9-.8-.9-.4 0-.8.2-1.2.4l-.4-.7c.5-.3 1.1-.6 1.8-.6 1.1 0 1.6.7 1.6 1.9v2.6h-.9l-.1-.5c-.3.5-.8.7-1.3.7zm.3-.8c.4 0 .6-.2 1-.5v-1c-1.2.2-1.6.5-1.6 1 0 .4.3.5.6.5z" id="_x31_4a"/></svg>