<svg version="1.1" id="Layer_1" xmlns="http://www.w3.org/2000/svg" x="0" y="0" viewBox="0 0 88 88" xml:space="preserve" enable-background="new 0 0 88 88"><style>.st0{fill:#fff}.st3{fill:#3e3832}.st7{fill:#8e9294}</style><g id="Interne-flater-_x2F_-card-_x2F_-ikon-vedtak-_x2F_-utkast-"><circle class="st0" cx="44" cy="44" r="40" id="Oval-Copy-8"/><g id="Oval-Copy-8_1_"><circle cx="44" cy="44" r="40" fill="#99c2e8"/><path d="M44 0C19.7 0 0 19.7 0 44s19.7 44 44 44 44-19.7 44-44S68.3 0 44 0zm0 84C21.9 84 4 66.1 4 44S21.9 4 44 4s40 17.9 40 40-17.9 40-40 40z" fill="#0067c5"/></g><g id="dokumenter_x2F_-utklippstavlen-copy-9" transform="translate(26 18)"><path class="st3" d="M34.7 0H2.4C1.1 0 0 1.2 0 2.7V49c0 .3 0 .6.1.8.1.4.3.8.6 1.1l.2.2c.4.3.8.6 1.3.6h32.5c1.3 0 2.4-1.2 2.4-2.7V2.7C37.1 1.2 36 0 34.7 0z" id="Fill-102"/><g transform="translate(3.434 3.861)" id="Group"><g id="farger_x2F_-ark_x2F_-lys-grå"><defs><filter id="Adobe_OpacityMaskFilter" filterUnits="userSpaceOnUse" x="-4.4" y="-6.3" width="38" height="56"><feColorMatrix values="1 0 0 0 0 0 1 0 0 0 0 0 1 0 0 0 0 0 1 0"/></filter></defs><mask maskUnits="userSpaceOnUse" x="-4.4" y="-6.3" width="38" height="56" id="mask-2_1_"><g filter="url(#Adobe_OpacityMaskFilter)"><path id="path-1_1_" class="st0" d="M0 7.5v34.2C0 43 .9 44 1.9 44h25.7c1.1 0 1.9-1 1.9-2.2V2.2c0-1.2-.8-2.2-1.9-2.2H7.1L0 7.5z"/></g></mask><g id="V_x2699__xFE0F__x2F_farger_x2F_-ark_x2F_-hvit" mask="url(#mask-2_1_)"><path class="st0" d="M0 0h38v56H0z" transform="translate(-4.375 -6.288)"/></g></g><path d="M7.1 0v5.3c0 1.3-.9 2.3-2 2.3H0L7.1 0z" fill="#c9c9c9" id="Fill-59"/></g></g><path class="st7" d="M44 39.5H34c-.8 0-1.5-.7-1.5-1.5s.7-1.5 1.5-1.5h10c.8 0 1.5.7 1.5 1.5s-.7 1.5-1.5 1.5z" id="Stroke-8-Copy"/><path class="st7" d="M53 46.5H34c-.8 0-1.5-.7-1.5-1.5s.7-1.5 1.5-1.5h19c.8 0 1.5.7 1.5 1.5s-.7 1.5-1.5 1.5z" id="Stroke-10-Copy"/><path class="st7" d="M50.5 53.5H34c-.8 0-1.5-.7-1.5-1.5s.7-1.5 1.5-1.5h16.5c.8 0 1.5.7 1.5 1.5s-.7 1.5-1.5 1.5z" id="Stroke-12-Copy"/><g id="Group-2" transform="translate(54 46)"><g id="Group_1_"><path class="st3" d="M8.1 0H8C5.9 0 3.8.9 2.3 2.4.8 4 0 6 0 8.1.1 12.5 3.5 16 7.9 16H8c4.5-.1 8.1-3.7 8-8.1C15.9 3.5 12.5 0 8.1 0z" id="Shape"/></g></g><g id="Group-9" transform="translate(58 49)"><path class="st0" d="M7.8 3.4L2.6 8.2h-.1-.1L.7 6.6v-.2l5.1-4.9H6l1.7 1.7c.1 0 .1.1.1.2z" id="Fill-1"/><g id="Group-5" transform="translate(5.727 .211)"><defs><filter id="Adobe_OpacityMaskFilter_1_" filterUnits="userSpaceOnUse" x=".4" y=".2" width="2.8" height="2.7"><feColorMatrix values="1 0 0 0 0 0 1 0 0 0 0 0 1 0 0 0 0 0 1 0"/></filter></defs><mask maskUnits="userSpaceOnUse" x=".4" y=".2" width="2.8" height="2.7" id="mask-4_2_"><g filter="url(#Adobe_OpacityMaskFilter_1_)"><path id="path-3_2_" class="st0" d="M.4.2h2.8v2.7H.4z"/></g></mask><g id="Fill-3" mask="url(#mask-4_2_)"><path class="st0" d="M3.2 1.7c0 .1 0 .3-.2.4l-.8.8L.4 1.1l.8-.8c.2-.2.6-.2.8 0l1 .9c.2.2.2.3.2.5z"/></g></g><g id="Group-8" transform="translate(0 6.472)"><defs><filter id="Adobe_OpacityMaskFilter_2_" filterUnits="userSpaceOnUse" x="0" y=".2" width="2.3" height="2.1"><feColorMatrix values="1 0 0 0 0 0 1 0 0 0 0 0 1 0 0 0 0 0 1 0"/></filter></defs><mask maskUnits="userSpaceOnUse" x="0" y=".2" width="2.3" height="2.1" id="mask-6_2_"><g filter="url(#Adobe_OpacityMaskFilter_2_)"><path id="path-5_2_" class="st0" d="M0 .2h2.3v2.1H0z"/></g></mask><g id="Fill-6" mask="url(#mask-6_2_)"><path class="st0" d="M2.3 1.9L0 2.3.6.2z"/></g></g></g></g></svg>