<svg version="1.1" id="Layer_1" xmlns="http://www.w3.org/2000/svg" x="0" y="0" viewBox="0 0 88 88" xml:space="preserve" enable-background="new 0 0 88 88"><style>.st2{fill:#515658}.st4{fill:#fff}.st7{fill:none;stroke:#8e9294;stroke-width:3;stroke-linecap:round}</style><g id="Interne-flater-_x2F_-card-_x2F_-ikon-vedtak-_x2F_-utkast-i-symbol-Copy"><circle id="Oval-Copy-8" cx="44" cy="44" r="42" fill="#fff" stroke="#f4f4f4" stroke-width="4"/><circle id="Oval-Copy-8_1_" cx="44" cy="44" r="42" fill="#99c2e8" stroke="#0067c5" stroke-width="4"/><g id="dokumenter_x2F_-utklippstavlen-copy-9" transform="translate(26 18)"><path id="Fill-102" class="st2" d="M34.7 0H2.4C1.1 0 0 1.2 0 2.7V49c0 .3 0 .6.1.8.1.4.3.8.6 1.1l.2.2c.4.3.8.6 1.3.6h32.5c1.3 0 2.4-1.2 2.4-2.7V2.7C37.1 1.2 36 0 34.7 0"/><g transform="translate(3.434 3.861)" id="Group"><g id="farger_x2F_-ark_x2F_-lys-grå"><defs><filter id="Adobe_OpacityMaskFilter" filterUnits="userSpaceOnUse" x="-4.4" y="-6.3" width="38" height="56"><feColorMatrix values="1 0 0 0 0 0 1 0 0 0 0 0 1 0 0 0 0 0 1 0"/></filter></defs><mask maskUnits="userSpaceOnUse" x="-4.4" y="-6.3" width="38" height="56" id="mask-2_1_"><g filter="url(#Adobe_OpacityMaskFilter)"><path id="path-1_1_" class="st4" d="M0 7.5v34.2C0 43 .9 44 1.9 44h25.7c1.1 0 1.9-1 1.9-2.2V2.2c0-1.2-.8-2.2-1.9-2.2H7.1L0 7.5z"/></g></mask><g id="V_x2699__xFE0F__x2F_farger_x2F_-ark_x2F_-hvit" mask="url(#mask-2_1_)"><path class="st4" d="M0 0h38v56H0z" transform="translate(-4.375 -6.288)"/></g></g><path id="Fill-59" d="M7.1 0v5.3c0 1.3-.9 2.3-2 2.3H0L7.1 0z" fill="#c9c9c9"/></g></g><path id="Stroke-8-Copy" class="st7" d="M34 38h10"/><path id="Stroke-10-Copy" class="st7" d="M34 45h19"/><path id="Stroke-12-Copy" class="st7" d="M34 52h16.5"/><g id="Group-2" transform="translate(54 46)"><g id="Group_1_"><path id="Shape" class="st2" d="M8.1 0H8C5.9 0 3.8.9 2.3 2.4.8 4 0 6 0 8.1.1 12.5 3.5 16 7.9 16H8c4.5-.1 8.1-3.7 8-8.1C15.9 3.5 12.5 0 8.1 0z"/></g></g><g id="Group-9" transform="translate(58 49)"><path id="Fill-1" class="st4" d="M7.8 3.4L2.6 8.2h-.2L.7 6.6v-.2l5.1-4.9H6l1.7 1.7c.1 0 .1.1.1.2"/><g id="Group-5" transform="translate(5.727 .211)"><defs><filter id="Adobe_OpacityMaskFilter_1_" filterUnits="userSpaceOnUse" x=".4" y=".2" width="2.8" height="2.7"><feColorMatrix values="1 0 0 0 0 0 1 0 0 0 0 0 1 0 0 0 0 0 1 0"/></filter></defs><mask maskUnits="userSpaceOnUse" x=".4" y=".2" width="2.8" height="2.7" id="mask-4_1_"><g filter="url(#Adobe_OpacityMaskFilter_1_)"><path id="path-3_1_" class="st4" d="M.4.2h2.8v2.7H.4z"/></g></mask><path id="Fill-3" d="M3.2 1.7c0 .1 0 .3-.2.4l-.8.8L.4 1.1l.8-.8c.2-.2.6-.2.8 0l1 .9c.2.2.2.3.2.5" mask="url(#mask-4_1_)" fill="#fff"/></g><g id="Group-8" transform="translate(0 6.472)"><defs><filter id="Adobe_OpacityMaskFilter_2_" filterUnits="userSpaceOnUse" x="0" y=".2" width="2.3" height="2.1"><feColorMatrix values="1 0 0 0 0 0 1 0 0 0 0 0 1 0 0 0 0 0 1 0"/></filter></defs><mask maskUnits="userSpaceOnUse" x="0" y=".2" width="2.3" height="2.1" id="mask-6_1_"><g filter="url(#Adobe_OpacityMaskFilter_2_)"><path id="path-5_1_" class="st4" d="M0 .2h2.3v2.1H0z"/></g></mask><path id="Fill-6" mask="url(#mask-6_1_)" fill="#fff" d="M2.3 1.9L0 2.3.6.2z"/></g></g></g></svg>