<svg version="1.1" id="Layer_1" xmlns="http://www.w3.org/2000/svg" x="0" y="0" viewBox="0 0 80 80" xml:space="preserve" enable-background="new 0 0 80 80"><style>.st3{fill:#fff}.st7{fill:#38a161}</style><g id="Symbols"><g id="Interne-flater-_x2F_-card-_x2F_-ikon-vedtak-_x2F_-fullført"><circle id="Oval-Copy-8" cx="40" cy="40" r="40" fill="#9bd0b0"/><g id="dokumenter_x2F_-utklippstavlen-copy-7" transform="translate(23 16)"><path id="Fill-102" d="M32 0H2.2C1 0 0 1.1 0 2.5v42.2c0 .3 0 .5.1.7.1.4.3.7.6 1 0 .1.1.1.2.2.2.4.6.6 1.1.6h30c1.2 0 2.2-1.1 2.2-2.5V2.5c0-1.4-1-2.5-2.2-2.5" fill="#515658"/><g transform="translate(3.166 3.525)" id="Group"><g id="farger_x2F_-ark_x2F_-lys-grå"><defs><filter id="Adobe_OpacityMaskFilter" filterUnits="userSpaceOnUse" x="-4" y="-5.7" width="35" height="51"><feColorMatrix values="1 0 0 0 0 0 1 0 0 0 0 0 1 0 0 0 0 0 1 0"/></filter></defs><mask maskUnits="userSpaceOnUse" x="-4" y="-5.7" width="35" height="51" id="mask-2_1_"><g filter="url(#Adobe_OpacityMaskFilter)"><path id="path-1_1_" class="st3" d="M0 6.9v31.3c0 1.1.8 2 1.8 2h23.7c1 0 1.8-.9 1.8-2V2c0-1.1-.8-2-1.8-2H6.6L0 6.9z"/></g></mask><g id="V_x2699__xFE0F__x2F_farger_x2F_-ark_x2F_-hvit" mask="url(#mask-2_1_)"><path class="st3" d="M0 0h35v51H0z" transform="translate(-4.033 -5.74)"/></g></g><path id="Fill-59" d="M6.6 0v4.8c0 1.2-.8 2.1-1.9 2.1H0L6.6 0z" fill="#c9c9c9"/></g></g><g id="_xA7_-copy-9" transform="translate(36 26)"><path id="_xA7_-copy-3" d="M.6 15.4l1.7-.3c.1.9.4 1.5.8 1.9.4.3.9.5 1.5.5s1.1-.2 1.5-.5c.4-.3.5-.7.5-1.2 0-.3-.1-.6-.3-.9-.4-.5-1.4-1.3-3.2-2.4-.9-.6-1.6-1.1-1.9-1.4-.4-.3-.7-.7-.9-1.2-.2-.5-.3-1-.3-1.5 0-.6.2-1.2.6-1.7s.9-.9 1.5-1.1c-.4-.5-.8-.9-.9-1.3C1 4 .9 3.6.9 3.1c0-.8.3-1.6.9-2.2S3.3 0 4.3 0C5.5 0 6.4.3 7 .9s1 1.4 1.2 2.6l-1.7.1c-.2-.8-.4-1.3-.7-1.7-.4-.3-.8-.4-1.3-.4-.6 0-1 .2-1.4.5s-.6.6-.6 1c0 .3.1.7.3.9.3.4 1.3 1.2 2.9 2.2 1 .6 1.6 1.1 2 1.4.4.4.8.8 1 1.2.2.5.3 1 .3 1.5 0 .7-.2 1.4-.7 1.9-.3.3-.7.6-1.4.9.5.4.9.8 1.1 1.3.2.5.4 1 .4 1.5 0 .6-.2 1.1-.5 1.6s-.8.9-1.3 1.2-1.3.4-1.9.4c-1.2 0-2.1-.3-2.8-.9-.8-.7-1.2-1.5-1.3-2.7zM6 12.3c.5-.3.8-.5 1-.9.2-.3.3-.7.3-1 0-.4-.2-.8-.5-1.2-.3-.4-1-1-2.1-1.7-.7-.4-1.4-.9-1.8-1.2-.5.3-.8.6-1.1.9-.2.3-.3.6-.3 1s.2.8.5 1.2.9.9 1.9 1.5c.8.5 1.5 1 2.1 1.4z" fill="#505557"/></g><g id="check-circle-2" transform="translate(47 12)"><path id="Shape" class="st7" d="M8 0C3.6 0 0 3.6 0 8s3.6 8 8 8 8-3.6 8-8-3.6-8-8-8z"/></g><circle class="st7" cx="55" cy="20" r="8"/><path id="Path" d="M58.6 17.9l-5 4.7c-.1.1-.1.1-.2.1s-.2 0-.2-.1l-1.7-1.7c-.1-.1-.1-.3 0-.5.1-.1.3-.1.5 0l1.4 1.4 4.8-4.4c.1-.1.3-.1.5 0s0 .4-.1.5z" fill="#fff" stroke="#fff"/><path id="_x31_4a" d="M35.6 53v-.7h1v-2.9h-.8v-.5c.4-.1.7-.2 1-.4h.6v3.8h.9v.7h-2.7zm5.2 0v-1.1h-2v-.5l1.8-2.8h1v2.7h.6v.6h-.6V53h-.8zm-1.2-1.8h1.2v-1-.9c-.1.2-.2.5-.4.7l-.8 1.2zm4 1.9c-.6 0-1-.4-1-1 0-.7.6-1.1 2-1.3 0-.4-.2-.7-.6-.7-.3 0-.7.2-1 .3l-.3-.5c.4-.2.9-.4 1.4-.4.9 0 1.3.5 1.3 1.5v2h-.7l-.1-.4c-.2.3-.6.5-1 .5zm.3-.6c.3 0 .5-.1.7-.4v-.8c-.9.1-1.2.4-1.2.7 0 .3.2.5.5.5z" fill="#3e3832"/></g></g></svg>