<?xml version="1.0" encoding="utf-8"?>
<!-- Generator: Adobe Illustrator 22.1.0, SVG Export Plug-In . SVG Version: 6.00 Build 0)  -->
<svg version="1.1" id="Layer_1" xmlns="http://www.w3.org/2000/svg" xmlns:xlink="http://www.w3.org/1999/xlink" x="0px" y="0px"
	 viewBox="0 0 130 90" style="enable-background:new 0 0 130 90;" xml:space="preserve">
<style type="text/css">
	.st0{fill:#A0A0A0;}
	.st1{fill:#D8D8D8;}
	.st2{filter:url(#Adobe_OpacityMaskFilter);}
	.st3{fill:#FFFFFF;}
	.st4{mask:url(#mask-2_1_);}
</style>
<g id="Interne-flater-_x2F_--card-_x2F_-ingen-vedtak-_x2F_--illustrasjon-ingen-gjelende-vedtak-Copy-7">
	<g id="Oval">
		<ellipse class="st0" cx="65" cy="84" rx="44" ry="6"/>
	</g>
	<g id="Group" transform="translate(38.000000, 7.000000)">
		<g id="Fill-102">
			<path class="st1" d="M3.6,0C1.6,0,0,1.8,0,4.1v69.1c0,0.4,0.1,0.8,0.2,1.2c0.2,0.6,0.5,1.2,0.9,1.7c0.1,0.1,0.2,0.2,0.3,0.3
				c0.5,0.5,1.2,0.8,1.9,0.9c0.1,0,0.2,0,0.4,0h48.2c2,0,3.6-1.8,3.6-4.1V4.1c0-2.3-1.6-4.1-3.6-4.1H3.6z"/>
		</g>
		<g id="farger_x2F_-ark_x2F_-lys-grå" transform="translate(4.900000, 5.880000)">
			<defs>
				<filter id="Adobe_OpacityMaskFilter" filterUnits="userSpaceOnUse" x="-5.5" y="-9.4" width="56.4" height="83.6">
					<feColorMatrix  type="matrix" values="1 0 0 0 0  0 1 0 0 0  0 0 1 0 0  0 0 0 1 0"/>
				</filter>
			</defs>
			<mask maskUnits="userSpaceOnUse" x="-5.5" y="-9.4" width="56.4" height="83.6" id="mask-2_1_">
				<g class="st2">
					<path id="path-1_1_" class="st3" d="M0,11.3v51.1c0,1.8,1.3,3.3,2.9,3.3h38.4c1.6,0,2.9-1.5,2.9-3.3V3.3c0-1.8-1.3-3.3-2.9-3.3
						H10.6L0,11.3z"/>
				</g>
			</mask>
			<g id="_xD83D__xDCC4_-ark" class="st4">
				<g id="Rectangle" transform="translate(-5.534036, -9.388485)">
					<g>
						<rect x="0" y="0" class="st3" width="56.4" height="83.6"/>
					</g>
				</g>
			</g>
		</g>
		<g id="Fill-59">
			<path class="st0" d="M15.4,6v7.8c0,1.9-1.4,3.4-3.1,3.4H4.8L15.4,6z"/>
		</g>
		<g id="line_x2F_add-1">
			<path class="st0" d="M35.1,48.8c-0.6,0.6-1.5,0.6-2.1,0l-5.6-5.6l-5.6,5.6c-0.3,0.3-0.6,0.4-1,0.4c-0.4,0-0.8-0.2-1-0.4
				c-0.6-0.6-0.6-1.5,0-2.1l5.6-5.6l-5.6-5.6c-0.6-0.6-0.6-1.5,0-2.1c0.3-0.3,0.6-0.4,1-0.4c0.4,0,0.8,0.2,1,0.4l5.6,5.6l5.6-5.6
				c0.3-0.3,0.6-0.4,1-0.4c0.4,0,0.8,0.2,1,0.4c0.6,0.6,0.6,1.5,0,2.1l-5.6,5.6l5.6,5.6C35.7,47.3,35.7,48.2,35.1,48.8z"/>
		</g>
	</g>
</g>
</svg>
