<svg version="1.1" id="Layer_1" xmlns="http://www.w3.org/2000/svg" x="0" y="0" viewBox="0 0 130 90" xml:space="preserve" enable-background="new 0 0 130 90"><style>.st0{fill:#a0a0a0}.st3{fill:#fff}</style><g id="Interne-flater-_x2F_--card-_x2F_-ingen-vedtak-_x2F_--illustrasjon-ingen-gjelende-vedtak-Copy-7"><ellipse class="st0" cx="65" cy="84" rx="44" ry="6" id="Oval"/><g id="Group" transform="translate(38 7)"><path d="M3.6 0C1.6 0 0 1.8 0 4.1v69.1c0 .4.1.8.2 1.2.2.6.5 1.2.9 1.7l.3.3c.5.5 1.2.8 1.9.9h48.6c2 0 3.6-1.8 3.6-4.1V4.1c0-2.3-1.6-4.1-3.6-4.1H3.6z" fill="#d8d8d8" id="Fill-102"/><g id="farger_x2F_-ark_x2F_-lys-grå" transform="translate(4.9 5.88)"><defs><filter id="Adobe_OpacityMaskFilter" filterUnits="userSpaceOnUse" x="-5.5" y="-9.4" width="56.4" height="83.6"><feColorMatrix values="1 0 0 0 0 0 1 0 0 0 0 0 1 0 0 0 0 0 1 0"/></filter></defs><mask maskUnits="userSpaceOnUse" x="-5.5" y="-9.4" width="56.4" height="83.6" id="mask-2_1_"><g filter="url(#Adobe_OpacityMaskFilter)"><path id="path-1_1_" class="st3" d="M0 11.3v51.1c0 1.8 1.3 3.3 2.9 3.3h38.4c1.6 0 2.9-1.5 2.9-3.3V3.3c0-1.8-1.3-3.3-2.9-3.3H10.6L0 11.3z"/></g></mask><g id="_xD83D__xDCC4_-ark" mask="url(#mask-2_1_)"><path class="st3" d="M0 0h56.4v83.6H0z" transform="translate(-5.534 -9.388)" id="Rectangle"/></g></g><path class="st0" d="M15.4 6v7.8c0 1.9-1.4 3.4-3.1 3.4H4.8L15.4 6z" id="Fill-59"/><path class="st0" d="M35.1 48.8c-.6.6-1.5.6-2.1 0l-5.6-5.6-5.6 5.6c-.3.3-.6.4-1 .4s-.8-.2-1-.4c-.6-.6-.6-1.5 0-2.1l5.6-5.6-5.6-5.6c-.6-.6-.6-1.5 0-2.1.3-.3.6-.4 1-.4s.8.2 1 .4l5.6 5.6 5.6-5.6c.3-.3.6-.4 1-.4s.8.2 1 .4c.6.6.6 1.5 0 2.1l-5.6 5.6 5.6 5.6c.7.6.7 1.5.1 2.1z" id="line_x2F_add-1"/></g></g></svg>