<svg version="1.1" id="Layer_1" xmlns="http://www.w3.org/2000/svg" x="0" y="0" viewBox="0 0 88 88" xml:space="preserve" enable-background="new 0 0 88 88"><style>.st4{fill:#fff}.st6{fill:#8e9294}</style><g id="Oval-Copy-8_1_"><circle cx="44" cy="44" r="40" fill="#cce1f3"/><path d="M44 0C19.7 0 0 19.7 0 44s19.7 44 44 44 44-19.7 44-44S68.3 0 44 0zm0 84C21.9 84 4 66.1 4 44S21.9 4 44 4s40 17.9 40 40-17.9 40-40 40z" fill="#0067c5"/></g><path d="M70 53.9c.1 4-3 7.5-6.9 8V67c0 1.5-1.1 2.7-2.4 2.7H28.2c-.5-.1-.9-.3-1.3-.6-.1 0-.1-.1-.2-.2-.3-.3-.5-.7-.6-1.1-.1-.2-.1-.5-.1-.8V20.7c0-1.5 1.1-2.7 2.4-2.7h32.3c1.3 0 2.4 1.2 2.4 2.7V46c3.9.5 6.8 3.8 6.9 7.9z" fill="#515658"/><g transform="translate(3.434 3.861)" id="Group"><path class="st4" d="M52.9 44.6c-1.5 1.5-2.4 3.6-2.3 5.7.1 3.4 2.1 6.2 5 7.3v2.2c0 1.2-.9 2.2-1.9 2.2H27.9c-1.1 0-1.9-1-1.9-2.2V25.5l7.1-7.5h20.5c1.1 0 1.9 1 1.9 2.2v22.5c-.9.5-1.8 1.1-2.6 1.9z" id="farger_x2F_-ark_x2F_-lys-grå"/><path id="Fill-59" d="M33.1 18v5.3c0 1.3-.9 2.3-2 2.3H26l7.1-7.6z" fill="#c9c9c9"/></g><path class="st6" d="M44 39.5H34c-.8 0-1.5-.7-1.5-1.5s.7-1.5 1.5-1.5h10c.8 0 1.5.7 1.5 1.5s-.7 1.5-1.5 1.5z" id="Stroke-8-Copy"/><path class="st6" d="M53 46.5H34c-.8 0-1.5-.7-1.5-1.5s.7-1.5 1.5-1.5h19c.8 0 1.5.7 1.5 1.5s-.7 1.5-1.5 1.5z" id="Stroke-10-Copy"/><path class="st6" d="M50.5 53.5H34c-.8 0-1.5-.7-1.5-1.5s.7-1.5 1.5-1.5h16.5c.8 0 1.5.7 1.5 1.5s-.7 1.5-1.5 1.5z" id="Stroke-12-Copy"/><path id="Fill-1" class="st4" d="M65.8 52.4l-5.1 4.9h-.2l-1.7-1.7v-.2l5.1-4.9h.2l1.7 1.7v.2"/><g id="Group-5" transform="translate(5.727 .211)"><defs><filter id="Adobe_OpacityMaskFilter" filterUnits="userSpaceOnUse" x="58.4" y="49.2" width="2.8" height="2.7"><feColorMatrix values="1 0 0 0 0 0 1 0 0 0 0 0 1 0 0 0 0 0 1 0"/></filter></defs><mask maskUnits="userSpaceOnUse" x="58.4" y="49.2" width="2.8" height="2.7" id="mask-4_1_"><g filter="url(#Adobe_OpacityMaskFilter)"><path id="path-3_1_" class="st4" d="M58.4 49.2h2.8v2.7h-2.8z"/></g></mask><path id="Fill-3" d="M61.2 50.7c0 .1-.1.3-.2.4l-.8.8-1.8-1.7.8-.8c.2-.2.6-.2.8 0l1 .9c.2.1.2.2.2.4" mask="url(#mask-4_1_)" fill="#fff"/></g><g id="Group-8" transform="translate(0 6.472)"><defs><filter id="Adobe_OpacityMaskFilter_1_" filterUnits="userSpaceOnUse" x="58" y="49.2" width="2.3" height="2.1"><feColorMatrix values="1 0 0 0 0 0 1 0 0 0 0 0 1 0 0 0 0 0 1 0"/></filter></defs><mask maskUnits="userSpaceOnUse" x="58" y="49.2" width="2.3" height="2.1" id="mask-6_1_"><g filter="url(#Adobe_OpacityMaskFilter_1_)"><path id="path-5_1_" class="st4" d="M58 49.2h2.3v2.1H58z"/></g></mask><path id="Fill-6" mask="url(#mask-6_1_)" fill="#fff" d="M60.3 50.9l-2.3.4.6-2.1z"/></g></svg>