<?xml version="1.0" encoding="utf-8"?>
<!-- Generator: Adobe Illustrator 22.1.0, SVG Export Plug-In . SVG Version: 6.00 Build 0)  -->
<svg version="1.1" id="Layer_1" xmlns="http://www.w3.org/2000/svg" xmlns:xlink="http://www.w3.org/1999/xlink" x="0px" y="0px"
	 viewBox="0 0 88 88" style="enable-background:new 0 0 88 88;" xml:space="preserve">
<style type="text/css">
	.st0{fill:#FFFFFF;}
	.st1{fill:#99C2E8;}
	.st2{fill:#0067C5;}
	.st3{fill:#3E3832;}
	.st4{filter:url(#Adobe_OpacityMaskFilter);}
	.st5{mask:url(#mask-2_1_);}
	.st6{fill:#C9C9C9;}
	.st7{fill:#8E9294;}
</style>
<g id="Interne-flater-_x2F_-card-_x2F_-ikon-vedtak-_x2F_-utkast-beslutter">
	<g id="Oval-Copy-8">
		<circle class="st0" cx="44" cy="44" r="40"/>
	</g>
	<g id="Oval-Copy-8_1_">
		<circle class="st1" cx="44" cy="44" r="40"/>
		<path class="st2" d="M44,0C19.7,0,0,19.7,0,44s19.7,44,44,44s44-19.7,44-44S68.3,0,44,0z M44,84C21.9,84,4,66.1,4,44S21.9,4,44,4
			s40,17.9,40,40S66.1,84,44,84z"/>
	</g>
	<g id="dokumenter_x2F_-utklippstavlen-copy-9" transform="translate(26.000000, 18.000000)">
		<g id="Fill-102">
			<path class="st3" d="M34.7,0H2.4C1.1,0,0,1.2,0,2.7V49c0,0.3,0,0.6,0.1,0.8c0.1,0.4,0.3,0.8,0.6,1.1c0.1,0.1,0.1,0.1,0.2,0.2
				c0.4,0.3,0.8,0.6,1.3,0.6c0.1,0,0.2,0,0.2,0h32.3c1.3,0,2.4-1.2,2.4-2.7V2.7C37.1,1.2,36,0,34.7,0L34.7,0z"/>
		</g>
		<g id="Group" transform="translate(3.434063, 3.861000)">
			<g>
				<g id="farger_x2F_-ark_x2F_-lys-grå">
					<g id="Mask">
					</g>
					<defs>
						<filter id="Adobe_OpacityMaskFilter" filterUnits="userSpaceOnUse" x="-4.4" y="-6.3" width="38" height="56">
							<feColorMatrix  type="matrix" values="1 0 0 0 0  0 1 0 0 0  0 0 1 0 0  0 0 0 1 0"/>
						</filter>
					</defs>
					<mask maskUnits="userSpaceOnUse" x="-4.4" y="-6.3" width="38" height="56" id="mask-2_1_">
						<g class="st4">
							<path id="path-1_1_" class="st0" d="M0,7.5v34.2C0,43,0.9,44,1.9,44h25.7c1.1,0,1.9-1,1.9-2.2V2.2C29.5,1,28.7,0,27.6,0H7.1
								L0,7.5z"/>
						</g>
					</mask>
					<g id="V_x2699__xFE0F__x2F_farger_x2F_-ark_x2F_-hvit" class="st5">
						<g transform="translate(-4.375250, -6.287914)">
							<g>
								<rect x="0" y="0" class="st0" width="38" height="56"/>
							</g>
						</g>
					</g>
				</g>
				<g id="Fill-59">
					<path class="st6" d="M7.1,0v5.3c0,1.3-0.9,2.3-2,2.3H0L7.1,0z"/>
				</g>
			</g>
		</g>
	</g>
	<g id="Stroke-8-Copy">
		<path class="st7" d="M44,39.5H34c-0.8,0-1.5-0.7-1.5-1.5s0.7-1.5,1.5-1.5h10c0.8,0,1.5,0.7,1.5,1.5S44.8,39.5,44,39.5z"/>
	</g>
	<g id="Stroke-10-Copy">
		<path class="st7" d="M53,46.5H34c-0.8,0-1.5-0.7-1.5-1.5c0-0.8,0.7-1.5,1.5-1.5h19c0.8,0,1.5,0.7,1.5,1.5
			C54.5,45.8,53.8,46.5,53,46.5z"/>
	</g>
	<g id="Stroke-12-Copy">
		<path class="st7" d="M50.5,53.5H34c-0.8,0-1.5-0.7-1.5-1.5s0.7-1.5,1.5-1.5h16.5c0.8,0,1.5,0.7,1.5,1.5S51.3,53.5,50.5,53.5z"/>
	</g>
	<g id="Group-2" transform="translate(54.000000, 46.000000)">
		<g id="Group_1_">
			<g id="Shape">
				<path class="st3" d="M8.1,0L8,0C5.9,0,3.8,0.9,2.3,2.4C0.8,4,0,6,0,8.1C0.1,12.5,3.5,16,7.9,16L8,16c4.5-0.1,8.1-3.7,8-8.1
					C15.9,3.5,12.5,0,8.1,0z"/>
			</g>
		</g>
	</g>
	<g id="Fill_x2F_16-transfers_x2F_syncing" transform="translate(57.000000, 49.000000)">
		<g id="Combined-Shape">
			<path class="st0" d="M8.5,4.8c0.1,0,0.2,0,0.2,0.1c0,0,0.6,0.8,0.6,1.7c0,1.1-0.6,2.2-1.8,2.2l0,0H3.8v1c0,0.1-0.1,0.2-0.1,0.2
				c0,0,0,0-0.1,0c-0.1,0-0.1,0-0.1-0.1l0,0l-2-2.2c-0.1-0.1-0.1-0.2,0-0.3l0,0l2-2.2c0.1-0.1,0.1-0.1,0.2-0.1
				c0.1,0,0.1,0.1,0.1,0.2l0,0v1h3.8c0.7,0,0.8-0.2,0.8-0.3l0-0.1V5C8.4,4.9,8.5,4.8,8.5,4.8z M6.3,0.4c0.1,0,0.2,0,0.2,0.1l0,0
				l2,2.2c0.1,0.1,0.1,0.2,0,0.3l0,0l-2,2.2C6.5,5.2,6.4,5.2,6.3,5.2C6.3,5.2,6.2,5.1,6.2,5l0,0V4H2.4C1.6,4,1.6,4.2,1.6,4.4v1
				c0,0.1-0.1,0.2-0.1,0.2c0,0,0,0-0.1,0c-0.1,0-0.1,0-0.2-0.1c0,0-0.6-0.8-0.6-1.7c0-1.1,0.6-2.2,1.8-2.2l0,0h3.8v-1
				C6.2,0.5,6.3,0.4,6.3,0.4z"/>
		</g>
	</g>
</g>
</svg>
