<svg version="1.1" id="Layer_1" xmlns="http://www.w3.org/2000/svg" x="0" y="0" viewBox="0 0 80 80" xml:space="preserve"><style>.st1{fill:#6ab889}</style><g id="Group"><g id="Oval"><path d="M40 3C19.6 3 3 19.6 3 40s16.6 37 37 37 37-16.6 37-37S60.4 3 40 3zm22.5 27c0 .5-.4.9-.9.9s-.9-.4-.9-.9v-.9c-.2-1.3-.7-2.6-1.6-3.6-1.4-1.7-3.6-2.6-5.7-2.4-3 .3-5.5 2.8-5.8 6v4.8c2.6.1 4.7 2.3 4.7 4.9v12.6c0 2.7-2.2 4.9-4.9 4.9H31.9c-2.7 0-4.9-2.2-4.9-4.9V38.8c0-2.7 2.2-4.9 4.9-4.9h13.9V29c.4-4.1 3.6-7.3 7.5-7.7 2.7-.3 5.4.8 7.3 3a8.7 8.7 0 012 4.6V30z" fill="#fff"/><path class="st1" d="M40 0C17.9 0 0 17.9 0 40s17.9 40 40 40 40-17.9 40-40S62.1 0 40 0zm0 77C19.6 77 3 60.4 3 40S19.6 3 40 3s37 16.6 37 37-16.6 37-37 37z"/></g></g><g id="Group-6" transform="translate(27 22)"><path class="st1" d="M35.5 7v1c0 .5-.4.9-.9.9s-.9-.4-.9-.9v-.9c-.2-1.3-.7-2.6-1.6-3.6-1.4-1.7-3.6-2.6-5.7-2.4-3 .3-5.5 2.8-5.8 6v4.8c2.6.1 4.7 2.3 4.7 4.9v12.6c0 2.7-2.2 4.9-4.9 4.9H4.9c-2.7 0-4.9-2.2-4.9-4.9V16.8c0-2.7 2.2-4.9 4.9-4.9h13.9V7c.4-4.1 3.6-7.3 7.5-7.7 2.7-.3 5.4.8 7.3 3a8.7 8.7 0 012 4.6l-.1.1z" id="Stroke-1"/></g></svg>