<?xml version="1.0" encoding="utf-8"?>
<!-- Generator: Adobe Illustrator 22.1.0, SVG Export Plug-In . SVG Version: 6.00 Build 0)  -->
<svg version="1.1" id="Layer_1" xmlns="http://www.w3.org/2000/svg" xmlns:xlink="http://www.w3.org/1999/xlink" x="0px" y="0px"
	 viewBox="0 0 80 80" style="enable-background:new 0 0 80 80;" xml:space="preserve">
<style type="text/css">
	.st0{fill:#FFFFFF;}
	.st1{fill:#6AB889;}
</style>
<g id="Group">
	<g id="Oval">
		<path class="st0" d="M40,3C19.6,3,3,19.6,3,40s16.6,37,37,37s37-16.6,37-37S60.4,3,40,3z M62.5,30c0,0.5-0.4,0.9-0.9,0.9
			s-0.9-0.4-0.9-0.9v-0.9c-0.2-1.3-0.7-2.6-1.6-3.6c-1.4-1.7-3.6-2.6-5.7-2.4c-3,0.3-5.5,2.8-5.8,6v4.8c2.6,0.1,4.7,2.3,4.7,4.9
			v12.6c0,2.7-2.2,4.9-4.9,4.9H31.9c-2.7,0-4.9-2.2-4.9-4.9V38.8c0-2.7,2.2-4.9,4.9-4.9h13.9V29c0.4-4.1,3.6-7.3,7.5-7.7
			c2.7-0.3,5.4,0.8,7.3,3c1.1,1.3,1.8,2.9,2,4.6l0,0.1V30z"/>
		<path class="st1" d="M40,0C17.9,0,0,17.9,0,40s17.9,40,40,40s40-17.9,40-40S62.1,0,40,0z M40,77C19.6,77,3,60.4,3,40S19.6,3,40,3
			s37,16.6,37,37S60.4,77,40,77z"/>
	</g>
</g>
<g id="Group-6" transform="translate(27.000000, 22.000000)">
	<g id="Stroke-1">
		<path class="st1" d="M35.5,7V8c0,0.5-0.4,0.9-0.9,0.9S33.7,8.5,33.7,8V7.1c-0.2-1.3-0.7-2.6-1.6-3.6c-1.4-1.7-3.6-2.6-5.7-2.4
			c-3,0.3-5.5,2.8-5.8,6v4.8c2.6,0.1,4.7,2.3,4.7,4.9v12.6c0,2.7-2.2,4.9-4.9,4.9H4.9c-2.7,0-4.9-2.2-4.9-4.9V16.8
			c0-2.7,2.2-4.9,4.9-4.9h13.9V7c0.4-4.1,3.6-7.3,7.5-7.7c2.7-0.3,5.4,0.8,7.3,3c1.1,1.3,1.8,2.9,2,4.6L35.5,7z"/>
	</g>
	<g id="Group-5" transform="translate(0.000000, 11.819750)">
		<g id="Clip-4">
		</g>
	</g>
</g>
</svg>
