<svg width="80" height="80" xmlns="http://www.w3.org/2000/svg"><g fill="none" fill-rule="evenodd"><g><circle fill="#CDE7D8" cx="40" cy="40" r="40"/><path d="M21.429 28.143h35.714c.789 0 1.428.64 1.428 1.428v20c0 .79-.64 1.429-1.428 1.429H21.429c-.79 0-1.429-.64-1.429-1.429v-20c0-.789.64-1.428 1.429-1.428z" fill="#0C5EA8"/><path d="M21.434 55.898h30.924C53.151 55.898 20 30.413 20 30.413v24.041a1.44 1.44 0 001.434 1.444L27.143 46" fill="#99C2E8"/><path d="M57.137 55.898H26.213c-.792 0 32.358-25.485 32.358-25.485v24.041a1.44 1.44 0 01-1.434 1.444" fill="#3385D1"/></g><g fill-rule="nonzero"><path d="M53.5 19c-4.687 0-8.5 3.814-8.5 8.5s3.813 8.5 8.5 8.5c4.686 0 8.5-3.814 8.5-8.5S58.186 19 53.5 19z" fill="#06893A"/><path d="M51.333 29.72a.398.398 0 01.527.006l-.258-.239-.27.234zm.287-1.218l4.912-4.257c.461-.4 1.185-.38 1.618.05a1.01 1.01 0 01-.055 1.502l-5.723 4.96a1.195 1.195 0 01-.779.285c-.3 0-.59-.11-.81-.311l-1.906-1.771a1.01 1.01 0 010-1.503 1.208 1.208 0 011.618 0l1.125 1.045z" fill="#FFF"/></g></g></svg>