<svg xmlns="http://www.w3.org/2000/svg" viewBox="0 0 80 80"><circle cx="40" cy="40" r="40" fill="#cde7d8"/><path d="M21.4 28.1h35.7c.8 0 1.4.6 1.4 1.4v20c0 .8-.6 1.4-1.4 1.4H21.4c-.8.1-1.4-.5-1.4-1.3v-20c0-.8.6-1.5 1.4-1.5z" fill="#117938"/><path d="M21.4 55.9h30.9c.9 0-32.3-25.5-32.3-25.5v24c0 .9.6 1.5 1.4 1.5" fill="#6ab889"/><path d="M57.1 55.9H26.2c-.8 0 32.4-25.5 32.4-25.5v24c0 .9-.7 1.5-1.5 1.5" fill="#38a161"/><path d="M51.557 21.7h-.2c-2.3 0-4.5 1-6.1 2.6-1.6 1.7-2.4 3.9-2.4 6.1.1 4.7 3.8 8.4 8.4 8.4h.2c4.8-.1 8.6-4 8.6-8.7-.1-4.7-3.8-8.4-8.5-8.4z" fill="#c30000"/><g><path d="M49 32.3h1.7v-4.4h-1.4v-1.1c.8-.2 1.4-.4 1.9-.7h1.3v6.2h1.4v1.4H49v-1.4z" fill="#fff"/></g></svg>