<?xml version="1.0" encoding="UTF-8"?>
<svg width="80px" height="80px" viewBox="0 0 80 80" version="1.1" xmlns="http://www.w3.org/2000/svg" xmlns:xlink="http://www.w3.org/1999/xlink">
    <!-- Generator: Sketch 60.1 (88133) - https://sketch.com -->
    <title>Interne flater / Icon / send the letter</title>
    <desc>Created with Sketch.</desc>
    <g id="Symbols" stroke="none" stroke-width="1" fill="none" fill-rule="evenodd">
        <g id="Interne-flater-/--Confirmation-modal-/confirmed" transform="translate(-155.000000, 0.000000)">
            <g id="Group">
                <g id="Interne-flater-/-Icon-/-send-the-letter-digital" transform="translate(155.000000, 0.000000)">
                    <g id="Group">
                        <circle id="Oval" fill="#CDE7D8" cx="40" cy="40" r="40"></circle>
                        <g id="dokumenter/-brev" transform="translate(20.000000, 28.000000)">
                            <g id="Group">
                                <path d="M1.42857143,0.142857143 L37.1428571,0.142857143 C37.9318354,0.142857143 38.5714286,0.782450357 38.5714286,1.57142857 L38.5714286,21.5714286 C38.5714286,22.3604068 37.9318354,23 37.1428571,23 L1.42857143,23 C0.639593215,23 0,22.3604068 0,21.5714286 L0,1.57142857 C0,0.782450357 0.639593215,0.142857143 1.42857143,0.142857143 Z" id="Rectangle" fill="#0C5EA8"></path>
                                <path d="M1.43414483,27.8979592 L32.3584543,27.8979592 C33.1512081,27.8979592 0,2.41326531 0,2.41326531 L0,26.4543135 C0,27.2509276 0.642082192,27.8979592 1.43414483,27.8979592 L7.14285714,18" id="Fill-21" fill="#99C2E8"></path>
                                <path d="M37.1372827,27.8979592 L6.21295036,27.8979592 C5.42088714,27.8979592 38.5714286,2.41326531 38.5714286,2.41326531 L38.5714286,26.4543135 C38.5714286,27.2509276 37.9293459,27.8979592 37.1372827,27.8979592" id="Fill-22" fill="#3385D1"></path>
                            </g>
                        </g>
                    </g>
                    <g id="Beta/-Alt-radio/-valgt" transform="translate(45.000000, 19.000000)">
                        <g id="Alt-radio-valgt-Copy" fill-rule="nonzero">
                            <path d="M8.5,0 C3.81295833,0 0,3.81366667 0,8.5 C0,13.1863333 3.81295833,17 8.5,17 C13.1863333,17 17,13.1863333 17,8.5 C17,3.81366667 13.1863333,0 8.5,0 Z" id="Shape" fill="#06893A"></path>
                            <path d="M6.33273755,10.7205859 C6.40528532,10.6581259 6.49775757,10.625 6.59309863,10.625 C6.69196387,10.625 6.78900691,10.6615321 6.85967897,10.7264874 L6.60200714,10.4872158 L6.33273755,10.7205859 Z M6.61978938,9.50213333 L11.5322232,5.24497466 C11.9930302,4.84475173 12.7174935,4.86577438 13.1496159,5.29463632 C13.5817645,5.72352416 13.5570248,6.39630025 13.0954611,6.79731771 L7.37182489,11.757864 C7.15814214,11.941818 6.87941074,12.0416667 6.59309863,12.0416667 C6.29274976,12.0416667 6.00338584,11.9327348 5.78367543,11.730784 L3.87664964,9.95995064 C3.43000567,9.54520426 3.43000567,8.87217074 3.87664964,8.45742436 C4.32329361,8.04267799 5.04808926,8.04267799 5.49473323,8.45742436 L6.61978938,9.50213333 Z" id="Path" fill="#FFFFFF"></path>
                        </g>
                    </g>
                </g>
            </g>
        </g>
    </g>
</svg>