<svg version="1.1" id="Layer_1" xmlns="http://www.w3.org/2000/svg" x="0" y="0" viewBox="0 0 80 80" xml:space="preserve"><style>.st3{fill:#8f9395}</style><g id="Interne-flater-_x2F_--godkjent-_x2F_-sendt-i-posten" transform="translate(-153 2)"><g id="Group_1_" transform="translate(155)"><circle id="Oval" cx="38" cy="38" r="40" fill="#cde7d8"/><g id="Group"><path id="Fill-15" d="M18.6 36.9l-.6-5.7 19.1-15.8c.5-.5 1.3-.5 1.8 0L58 31.2l-.7 6.9L38 49.3 18.6 36.9z" fill="#1c6937"/><path id="Fill-16" d="M22 47.9c-.2 0-.4-.2-.4-.4V26.6c0-.2.2-.4.4-.4h32c.2 0 .4.2.4.4v20.9c0 .2-.2.4-.4.4H22z" fill="#fff"/><path id="Fill-17" class="st3" d="M28 35.3h20v-1.4H28z"/><path id="Fill-18" class="st3" d="M28 38.8h20v-1.4H28z"/><path id="Fill-19" class="st3" d="M28 42.3h20v-1.4H28z"/><path id="Fill-20" class="st3" d="M28 45.8h20v-1.4H28z"/><path id="Fill-21" d="M19.5 57h32.1C52.4 57 18 31.1 18 31.1v24.4c0 .8.7 1.5 1.5 1.5" fill="#6ab889"/><path id="Fill-22" d="M56.5 57H24.4C23.6 57 58 31.1 58 31.1v24.4c0 .8-.7 1.5-1.5 1.5" fill="#38a161"/></g></g></g></svg>