<?xml version="1.0" encoding="utf-8"?>
<!-- Generator: Adobe Illustrator 22.1.0, SVG Export Plug-In . SVG Version: 6.00 Build 0)  -->
<svg version="1.1" id="Layer_1" xmlns="http://www.w3.org/2000/svg" xmlns:xlink="http://www.w3.org/1999/xlink" x="0px" y="0px"
	 viewBox="0 0 32 32" style="enable-background:new 0 0 32 32;" xml:space="preserve">
<style type="text/css">
	.st0{fill:#0067C5;}
	.st1{fill:#FFFFFF;}
</style>
<g id="Group-6" transform="translate(860.000000, 351.000000)">
	<circle id="Oval" class="st0" cx="-844" cy="-335" r="16"/>
	<g id="New-icons-2px_x2F_24px_x2F_dialog-Copy" transform="translate(7.000000, 7.000000)">
		<path id="Shape" class="st1" d="M-845-343.5c1.6,0,2.9,1.3,3,2.9l0,0.1v7.5h-10.5c-1.6,0-2.9-1.3-3-2.9l0-0.1v-4.5
			c0-1.6,1.3-2.9,2.9-3l0.1,0H-845z M-845-342h-7.5l-0.1,0c-0.7,0.1-1.3,0.6-1.4,1.4l0,0.1v4.5l0,0.1c0.1,0.7,0.6,1.3,1.4,1.4l0.1,0
			h9v-6l0-0.1c-0.1-0.7-0.6-1.3-1.4-1.4L-845-342z M-851.8-339c0.4,0,0.8,0.3,0.8,0.8s-0.3,0.8-0.8,0.8s-0.8-0.3-0.8-0.8
			S-852.2-339-851.8-339z M-848.8-339c0.4,0,0.8,0.3,0.8,0.8s-0.3,0.8-0.8,0.8s-0.8-0.3-0.8-0.8S-849.2-339-848.8-339z M-845.8-339
			c0.4,0,0.8,0.3,0.8,0.8s-0.3,0.8-0.8,0.8s-0.8-0.3-0.8-0.8S-846.2-339-845.8-339z M-849.5-351c1.7,0,3,1.3,3,3v3.8h-1.5v-3.8
			c0-0.8-0.6-1.4-1.4-1.5l-0.1,0h-7.5c-0.8,0-1.4,0.6-1.5,1.4l0,0.1v6h2.2v1.5h-3.8v-7.5c0-1.7,1.3-3,3-3H-849.5z"/>
	</g>
</g>
</svg>
