<?xml version="1.0" encoding="utf-8"?>
<!-- Generator: Adobe Illustrator 22.1.0, SVG Export Plug-In . SVG Version: 6.00 Build 0)  -->
<svg version="1.1" id="Layer_1" xmlns="http://www.w3.org/2000/svg" xmlns:xlink="http://www.w3.org/1999/xlink" x="0px" y="0px"
	 viewBox="0 0 34 32" style="enable-background:new 0 0 34 32;" xml:space="preserve">
<style type="text/css">
	.st0{fill:#669DB4;}
	.st1{fill:#FFFFFF;}
</style>
<g id="dokumenter_x2F_-informasjon" transform="translate(13.000000, 16.000000)">
	<g id="Group-10" transform="translate(0.509091, 0.136232)">
		<path id="Shape" class="st0" d="M3.3-16C-5.7-16-13-9-13-0.4s7.3,15.6,16.3,15.6c9,0,16.3-7,16.3-15.6S12.3-16,3.3-16z"/>
		<path id="Combined-Shape" class="st1" d="M-1.5,9.3c-0.7,0-1.4-0.6-1.4-1.3c0-0.7,0.6-1.3,1.4-1.3l3.4,0v-9.1l-2,0
			c-0.7,0-1.4-0.6-1.4-1.3S-0.9-5-0.1-5h3.4l0,0C4-5,4.6-4.4,4.6-3.7l0,10.4l3.4,0c0.7,0,1.4,0.6,1.4,1.3c0,0.7-0.6,1.3-1.4,1.3
			H-1.5z M3.3-11.5c1.1,0,2,0.9,2,1.9c0,1.1-0.9,1.9-2,1.9c-1.1,0-2-0.9-2-1.9C1.3-10.6,2.2-11.5,3.3-11.5z"/>
	</g>
</g>
</svg>
