<svg version="1.1" id="Layer_1" xmlns="http://www.w3.org/2000/svg" x="0" y="0" viewBox="0 0 40 40" xml:space="preserve" enable-background="new 0 0 40 40"><style>.st5{fill:#59514b}</style><circle cx="20" cy="20" r="20" fill="#99bdcd"/><defs><filter id="Adobe_OpacityMaskFilter" filterUnits="userSpaceOnUse" x="2.4" y="2.8" width="35.8" height="51.1"><feColorMatrix values="1 0 0 0 0 0 1 0 0 0 0 0 1 0 0 0 0 0 1 0"/></filter></defs><mask maskUnits="userSpaceOnUse" x="2.4" y="2.8" width="35.8" height="51.1" id="mask-2_2_"><g filter="url(#Adobe_OpacityMaskFilter)"><circle id="path-1_2_" cx="20" cy="20" r="20" fill="#fff"/></g></mask><g id="mennesker_x2F_kvinne_x2F_-forfra" mask="url(#mask-2_2_)"><g transform="translate(1.25 1.73)" id="Group_2_"><g id="Group-2" transform="translate(6.706 3.313)"><g id="hud"><path id="Combined-Shape" d="M12.2.3c6 0 10.9 5.4 11.4 12.3.4.2.7.6.7 1.1v3.7c0 .6-.4 1.1-1 1.2H23c-1 3.1-2.8 5.6-5.2 7.2l.1 1.4v.1l-1.3 11.3H8.3v-.2L6.7 27.1l.1-1.4c-2.4-1.6-4.3-4.1-5.3-7.2h-.1c-.6 0-1.1-.5-1.1-1.2v-3.7c0-.4.2-.8.6-1C1.4 5.7 6.3.3 12.2.3z" fill="#e7e5e2"/></g><g id="mennesker_x2F_X_x2699__xFE0F__x2F__x2699__xFE0F_-ansikt-voksen_x2F_forfra_x2F_-blid" transform="translate(3.318 12.284)"><g id="Group" transform="translate(4.235 .5)"><path id="Fill-42" class="st5" d="M.8 2.5c-.7.1-.9-1-.7-1.7C.1.6.4 0 .8 0c.4 0 .6.3.6.4.4.7.2 2-.6 2.1"/><path id="Fill-44" class="st5" d="M9.3 2.5c.7.1.9-1 .7-1.7-.1-.2-.3-.8-.7-.8-.5 0-.7.3-.7.4-.3.7-.1 2 .7 2.1"/><path id="Stroke-46" class="st5" d="M5.3 3.6c.4-.1.7 0 .8.1.4.5.3 1.1-.4 1.5-.3.2-.8.3-1.1.2-.1-.1-.3 0-.3.1-.1.1 0 .3.1.4.4.2 1.1.1 1.6-.2.9-.6 1.2-1.5.5-2.3-.2-.4-.7-.5-1.3-.4-.1.1-.2.2-.2.3s.2.3.3.3z"/><path id="Stroke-48" class="st5" d="M8.5 7.1c0 .1-.1.1-.2.3-.2.2-.4.5-.6.7-.8.6-1.7.9-2.9.9s-2.1-.4-2.9-.9c-.2-.2-.5-.5-.6-.7-.1-.1-.2-.2-.2-.3C1 7 .8 7 .7 7c-.2.1-.2.2-.1.4 0 .1.1.2.2.3.2.3.5.5.8.7.8.6 1.9 1 3.2 1.1 1.4 0 2.5-.4 3.3-1.1.3-.2.5-.5.7-.7.1-.2.1-.3.2-.4 0-.1 0-.2-.2-.3-.1 0-.3 0-.3.1z"/></g></g></g><g id="Group-1"><path d="M24.2 29.4c0 2.5-2.4 5-5.2 5-2.9 0-5.2-2.6-5.2-5.1-1.5.4-3.7 1.5-5.6 3.4C6.5 34.5 5 37.3 5 39.4v12.8h28V39.4c0-2.1-1.5-4.9-3.3-6.7-1.8-1.8-4-2.9-5.5-3.3z" fill="#66a4dc"/><path d="M32.2 16.6c0-9.2-5-15.5-13.2-15.5S5.8 7.4 5.8 16.6c0 7.8-4.6 12.3-4.6 12.3s2.2 2.6 7.3 3.7c1.7-1.6 4-2.7 5.4-3.2v-.5c-2.5-1.6-4.4-4.2-5.4-7.4-.1 0-.2.1-.3.1-.5 0-.8-.4-.8-.9V17c0-.4.2-.7.5-.9l.3-.6c1.9-3.3 5.7-6 5.7-6 .3 0 4.6 7.9 16.3 6.6.4.1.6.5.6.9v3.7c0 .5-.4.9-.8.9-.1 0-.3 0-.4-.1-.9 3.2-2.8 5.8-5.3 7.4l.1.6c1.3.5 3.7 1.6 5.4 3.1 5-1.1 7.3-3.7 7.3-3.7s-4.9-4.5-4.9-12.3z" fill="#3e3832"/></g></g></g></svg>