<?xml version="1.0" encoding="utf-8"?>
<!-- Generator: Adobe Illustrator 22.1.0, SVG Export Plug-In . SVG Version: 6.00 Build 0)  -->
<svg version="1.1" id="Layer_1" xmlns="http://www.w3.org/2000/svg" xmlns:xlink="http://www.w3.org/1999/xlink" x="0px" y="0px"
	 viewBox="0 0 22 24" style="enable-background:new 0 0 22 24;" xml:space="preserve">
<style type="text/css">
	.st0{fill:#0067C5;}
</style>
<path class="st0" d="M15.9,4c-0.5-2.3-2.5-4-4.9-4S6.6,1.7,6.1,4H0v2h2v14c0,2.2,1.8,4,4,4h10c2.2,0,4-1.8,4-4V6h2V4H15.9z M8.2,3.8
	C8.7,2.7,9.8,2,11,2h0.2h0.2c1.1,0.2,2,0.8,2.4,1.8L13.9,4H8.2V3.8z M18,20L18,20c-0.1,1.2-0.9,2-2,2H6H5.9C4.8,21.9,4,21.1,4,20V6
	h14V20z"/>
<rect x="7" y="9" class="st0" width="2" height="10"/>
<rect x="13" y="9" class="st0" width="2" height="10"/>
</svg>
