<?xml version="1.0" encoding="utf-8"?>
<!-- Generator: Adobe Illustrator 22.1.0, SVG Export Plug-In . SVG Version: 6.00 Build 0)  -->
<svg version="1.1" id="Layer_1" xmlns="http://www.w3.org/2000/svg" xmlns:xlink="http://www.w3.org/1999/xlink" x="0px" y="0px"
	 viewBox="0 0 16 24" style="enable-background:new 0 0 16 24;" xml:space="preserve">
<style type="text/css">
	.st0{fill:#0067C5;}
</style>
<path class="st0" d="M8.1,12.3c-1.1,0-2,0.9-2,2c0,0.7,0.4,1.4,1,1.7v3.3h2V16c0.6-0.3,1-1,1-1.7C10.1,13.2,9.2,12.3,8.1,12.3z"/>
<path class="st0" d="M14,8h-1V5c0-2.8-2.2-5-5-5S3,2.2,3,5v3H2c-1.1,0-2,0.9-2,2v12c0,1.1,0.9,2,2,2h12c1.1,0,2-0.9,2-2V10
	C16,8.9,15.1,8,14,8z M5,4.8C5.1,3.2,6.4,2,8,2h0.2C9.8,2.1,11,3.4,11,5v3H5V4.8z M14,22H2V10h12V22z"/>
</svg>
