<svg xmlns="http://www.w3.org/2000/svg" viewBox="0 0 32 32"><g transform="translate(860 351)"><circle cx="-844" cy="-335" r="16" fill="#0067c5"/><path d="M-838-336.5c1.6 0 2.9 1.3 3 2.9v7.6h-10.5c-1.6 0-2.9-1.3-3-2.9v-4.6c0-1.6 1.3-2.9 2.9-3h7.6zm0 1.5h-7.6c-.7.1-1.3.6-1.4 1.4V-328.9c.1.7.6 1.3 1.4 1.4h9.1v-6.1c-.1-.7-.6-1.3-1.4-1.4h-.1zm-6.8 3c.4 0 .8.3.8.8s-.3.8-.8.8-.8-.3-.8-.8.4-.8.8-.8zm3 0c.4 0 .8.3.8.8s-.3.8-.8.8-.8-.3-.8-.8.4-.8.8-.8zm3 0c.4 0 .8.3.8.8s-.3.8-.8.8-.8-.3-.8-.8.4-.8.8-.8zm-3.7-12c1.7 0 3 1.3 3 3v3.8h-1.5v-3.8c0-.8-.6-1.4-1.4-1.5h-7.6c-.8 0-1.4.6-1.5 1.4v6.1h2.2v1.5h-3.8v-7.5c0-1.7 1.3-3 3-3h7.6z" fill="#fff"/></g></svg>