<svg width="20" height="20" xmlns="http://www.w3.org/2000/svg"><path d="M16.518 10.889a.4.4 0 01.565 0l2 2a.4.4 0 01.001.565l-5.2 5.2a.38.38 0 01-.157.092l-.016.01-2.8.8a.404.404 0 01-.393-.102.4.4 0 01-.102-.392l.8-2.8c.002-.006.007-.01.009-.015a.377.377 0 01.093-.158zm-4.72 6.246l-.416 1.455 1.455-.416-1.04-1.039zm3.402-3.797l-3.034 3.034 1.434 1.434 3.034-3.034-1.434-1.434zM8.24.428c1.218 0 2.735.38 3.002 1.447.214.863-.11 1.703-.324 2.202.296.205.481.593.481 1.066 0 .293-.076.572-.213.786a.967.967 0 01-.397.357c-.094 1.399-.803 2.059-1.19 2.317v1.485c.5.185 1.265.509 2.01.825.716.304 1.393.59 1.661.679l-.25.76c-.3-.1-.96-.378-1.723-.702-.843-.358-1.801-.764-2.219-.897a.4.4 0 01-.278-.381v-2c0-.162.098-.308.248-.37.034-.015.952-.441.952-2.03 0-.22.18-.4.4-.4.137 0 .2-.255.2-.428s-.063-.429-.2-.429a.4.4 0 01-.4-.4c0-.13.05-.246.142-.458.17-.395.488-1.129.324-1.789-.119-.478-1.075-.84-2.225-.84-1.15 0-2.107.362-2.225.84a.398.398 0 01-.467.296c-.16-.031-.44-.068-.548.049-.249.267.024 1.238.114 1.557.056.203.085.304.085.402a.402.402 0 01-.246.37c-.073.19-.073.67 0 .861a.4.4 0 01.246.369c0 1.589.918 2.014.957 2.033a.406.406 0 01.243.367v2c0 .16-.096.306-.245.368-.623.263-1.319.498-1.992.724-1.23.415-2.762.931-2.929 1.434-.259.777-.37 2.05-.412 2.702H8.8v.8H.4a.393.393 0 01-.287-.123.396.396 0 01-.113-.292c.003-.088.082-2.156.475-3.34.292-.881 1.748-1.371 3.433-1.94.57-.19 1.158-.389 1.692-.602v-1.5c-.394-.263-1.12-.941-1.194-2.392-.196-.193-.306-.553-.306-1.039 0-.252.034-.492.095-.677a.952.952 0 01.154-.294l-.004-.015-.033-.118c-.172-.621-.417-1.64.1-2.2.228-.245.555-.357.963-.332C5.846.727 7.158.429 8.238.429zm8.56 11.31l-1.034 1.034 1.434 1.434 1.034-1.034-1.434-1.434z" fill="#0067C5" fill-rule="evenodd"/></svg>