<svg version="1.1" id="Layer_1" xmlns="http://www.w3.org/2000/svg" x="0" y="0" viewBox="0 0 88 88" xml:space="preserve"><style>.st3{fill:#fff}.st5{fill:#505557}</style><g id="Oval-Copy-8"><path d="M44 3C21.4 3 3 21.4 3 44s18.4 41 41 41 41-18.4 41-41S66.6 3 44 3zm18.8 54.4c0 .5-.4.9-.8.9s-.8-.4-.8-.9v-2.6h-2.6c-.5 0-.9-.4-.9-.8s.4-.8.9-.8h2.6v-2.6c0-.5.4-.9.8-.9s.8.4.8.9v2.6h2.6c.5 0 .9.4.9.8s-.4.8-.9.8h-2.6v2.6z" fill="#ffe9cc"/><path d="M44 0C19.7 0 0 19.7 0 44s19.7 44 44 44 44-19.7 44-44S68.3 0 44 0zm0 85C21.4 85 3 66.6 3 44S21.4 3 44 3s41 18.4 41 41-18.4 41-41 41z" fill="#ffca00"/></g><g id="Group-2" transform="translate(54 46)"><g id="Group_1_"><path d="M10.1.2V-27c0-1.6-1.2-3-2.6-3h-34.9c-1.4 0-2.6 1.3-2.6 3v49.8c0 .3 0 .6.1.9.1.5.3.9.6 1.2l.2.2c.4.4.9.6 1.4.7H7.5c1.4 0 2.6-1.3 2.6-2.9v-7.1c3.5-1 6-4.1 5.9-7.8-.1-3.9-2.5-6.9-5.9-7.8zm1.3 8.6H8.8v2.6c0 .5-.4.9-.8.9s-.8-.4-.8-.9V8.8H4.6c-.5 0-.9-.3-.9-.8s.4-.8.9-.8h2.6V4.6c0-.5.4-.9.8-.9s.8.4.8.9v2.6h2.6c.5 0 .9.4.9.8s-.4.8-.9.8z" fill="#515658" id="Shape"/><path class="st3" d="M12.3 8c0 .5-.4.8-.9.8H8.8v2.6c0 .5-.4.9-.8.9s-.8-.4-.8-.9V8.8H4.6c-.5 0-.9-.3-.9-.8s.4-.8.9-.8h2.6V4.6c0-.5.4-.9.8-.9s.8.4.8.9v2.6h2.6c.5 0 .9.3.9.8z" id="line_x2F_add-1"/></g></g><path class="st3" d="M59.6 22.5v23.8c-1.2.4-2.4 1.1-3.3 2.1C54.8 50 54 52 54 54.1c.1 3.6 2.4 6.6 5.6 7.5v3.5c0 1.3-.9 2.4-2.1 2.4H29.8c-1.1 0-2.1-1.1-2.1-2.4V28.3l7.7-8.1h22.2c1.1 0 2 1 2 2.3z"/><path id="Fill-59" d="M35.4 20.2v5.7c0 1.4-1 2.5-2.2 2.5h-5.5l7.7-8.2z" fill="#c9c9c9"/><g id="_xA7_-copy-9" transform="translate(39 29)"><path id="_xA7_-copy-3" class="st5" d="M.6 17.1l1.9-.3c.2.9.5 1.6.9 2 .4.4 1 .6 1.7.6s1.3-.2 1.7-.6c.4-.4.6-.8.6-1.3 0-.4-.1-.7-.4-1-.4-.5-1.6-1.4-3.5-2.7-1-.7-1.7-1.2-2.1-1.6s-.7-.8-1-1.3C.1 10.3 0 9.8 0 9.3c0-.7.2-1.3.6-1.9s1-1 1.7-1.2c-.5-.5-.8-1-1-1.4S1 3.9 1 3.5c0-1 .3-1.8 1-2.5s1.6-1 2.7-1C6 0 7 .3 7.7 1S9 2.6 9.1 3.8L7.2 4c-.2-.9-.4-1.5-.8-1.9s-.8-.5-1.5-.5c-.6 0-1.1.2-1.5.5s-.6.8-.6 1.3c0 .4.1.7.4 1 .4.5 1.4 1.3 3.2 2.4 1.1.7 1.8 1.2 2.2 1.5.5.4.9.9 1.1 1.4.2.5.3 1 .3 1.5 0 .8-.3 1.5-.8 2.1-.3.3-.8.7-1.6 1 .6.4 1 .9 1.2 1.4.3.5.4 1.1.4 1.6 0 .6-.2 1.2-.5 1.8-.3.6-.8 1-1.5 1.3s-1.3.6-2 .6c-1.3 0-2.4-.3-3.1-1S.8 18.3.6 17.1zm6.1-3.5c.5-.3.9-.6 1.1-1s.4-.7.4-1.1c0-.4-.2-.9-.5-1.3-.4-.4-1.1-1-2.3-1.8-1-.6-1.7-1.1-2.2-1.5-.6.3-1 .7-1.2 1s-.3.7-.3 1.1c0 .5.2.9.5 1.3s1 1 2.1 1.7c.9.6 1.7 1.1 2.4 1.6z"/></g><path id="_x31_4a" class="st5" d="M38 58.7v-.8h1.3v-3.8h-1.1v-.6c.6-.1 1-.3 1.3-.5h.8v4.9h1.1v.8H38zm6.6 0v-1.5h-2.5v-.7l2.3-3.5h1.2v3.4h.7v.8h-.7v1.5h-1zm-1.5-2.3h1.5v-1.3-1.2c-.1.3-.3.6-.5.9l-1 1.6zm5.2 2.4c-.8 0-1.3-.5-1.3-1.3 0-.9.8-1.4 2.6-1.6 0-.5-.2-.9-.8-.9-.4 0-.8.2-1.2.4l-.4-.7c.5-.3 1.1-.6 1.8-.6 1.1 0 1.6.7 1.6 1.9v2.6h-.9l-.1-.5c-.3.5-.8.7-1.3.7zm.3-.8c.4 0 .6-.2 1-.5v-1c-1.2.2-1.6.5-1.6 1 0 .4.3.5.6.5z"/></svg>