<?xml version="1.0" encoding="utf-8"?>
<!-- Generator: Adobe Illustrator 22.1.0, SVG Export Plug-In . SVG Version: 6.00 Build 0)  -->
<svg version="1.1" id="Layer_1" xmlns="http://www.w3.org/2000/svg" xmlns:xlink="http://www.w3.org/1999/xlink" x="0px" y="0px"
	 viewBox="0 0 88 88" style="enable-background:new 0 0 88 88;" xml:space="preserve">
<style type="text/css">
	.st0{fill:#FFE9CC;}
	.st1{fill:#FFA733;}
	.st2{fill:#3E3832;}
	.st3{filter:url(#Adobe_OpacityMaskFilter);}
	.st4{fill:#FFFFFF;}
	.st5{mask:url(#mask-2_1_);}
	.st6{fill:#C9C9C9;}
	.st7{fill:#505557;}
</style>
<g id="Interne-flater-_x2F_-card-_x2F_-ikon-vedtak-_x2F_--ingen_x2F_-legg-til-vedtak">
	<g id="Oval-Copy-8">
		<path class="st0" d="M44,4C21.9,4,4,21.9,4,44s17.9,40,40,40s40-17.9,40-40S66.1,4,44,4z M62.8,54.8v2.6c0,0.5-0.4,0.9-0.8,0.9
			s-0.8-0.4-0.8-0.9v-2.6h-2.6c-0.5,0-0.9-0.4-0.9-0.8s0.4-0.8,0.9-0.8h2.6v-2.6c0-0.5,0.4-0.9,0.8-0.9s0.8,0.4,0.8,0.9v2.6h2.6
			c0.5,0,0.9,0.4,0.9,0.8s-0.4,0.8-0.9,0.8H62.8z"/>
		<path class="st1" d="M44,0C19.7,0,0,19.7,0,44s19.7,44,44,44s44-19.7,44-44S68.3,0,44,0z M44,84C21.9,84,4,66.1,4,44S21.9,4,44,4
			s40,17.9,40,40S66.1,84,44,84z"/>
	</g>
	<g id="dokumenter_x2F_-utklippstavlen-copy-7" transform="translate(24.000000, 16.000000)">
		<g id="Fill-102">
			<path class="st2" d="M40,2.1C39.7,0.9,38.7,0,37.5,0H2.6C1.2,0,0,1.3,0,3v49.8c0,0.3,0,0.6,0.1,0.9c0.1,0.5,0.3,0.9,0.6,1.2
				C0.8,54.9,0.9,55,1,55c0.4,0.4,0.9,0.6,1.4,0.7c0.1,0,0.2,0,0.3,0h34.9c1.2,0,2.2-0.9,2.5-2.1c0.1-0.3,0.1-0.6,0.1-0.9V38.8h-1.2
				v2.6c0,0.5-0.4,0.9-0.8,0.9s-0.8-0.4-0.8-0.9v-2.6h-2.6c-0.5,0-0.9-0.4-0.9-0.8s0.4-0.8,0.9-0.8h2.6v-2.6c0-0.5,0.4-0.9,0.8-0.9
				s0.8,0.4,0.8,0.9v2.6h1.2V3C40.1,2.7,40.1,2.3,40,2.1z"/>
		</g>
		<g id="Group" transform="translate(3.712500, 4.158000)">
			<g>
				<g id="farger_x2F_-ark_x2F_-lys-grå">
					<g id="Mask">
					</g>
					<defs>
						<filter id="Adobe_OpacityMaskFilter" filterUnits="userSpaceOnUse" x="-4.7" y="-6.8" width="41" height="60">
							<feColorMatrix  type="matrix" values="1 0 0 0 0  0 1 0 0 0  0 0 1 0 0  0 0 0 1 0"/>
						</filter>
					</defs>
					<mask maskUnits="userSpaceOnUse" x="-4.7" y="-6.8" width="41" height="60" id="mask-2_1_">
						<g class="st3">
							<path id="path-1_1_" class="st4" d="M0,8.1V45c0,1.3,0.9,2.4,2.1,2.4h27.8c1.1,0,2.1-1.1,2.1-2.4V2.4C31.9,1.1,31,0,29.9,0
								H7.7L0,8.1z"/>
						</g>
					</mask>
					<g id="V_x2699__xFE0F__x2F_farger_x2F_-ark_x2F_-hvit" class="st5">
						<g transform="translate(-4.730000, -6.771600)">
							<g>
								<path class="st4" d="M41,0v39.8h-1.1v-2.6c0-0.5-0.4-0.9-0.8-0.9s-0.8,0.4-0.8,0.9v2.6h-2.6c-0.5,0-0.9,0.4-0.9,0.8
									s0.4,0.8,0.9,0.8h2.6V44c0,0.5,0.4,0.9,0.8,0.9s0.8-0.4,0.8-0.9v-2.6H41V60H0V0H41z"/>
							</g>
						</g>
					</g>
				</g>
				<g id="Fill-59">
					<path class="st6" d="M7.7,0v5.7c0,1.4-1,2.5-2.2,2.5H0L7.7,0z"/>
				</g>
			</g>
		</g>
	</g>
	<g id="_xA7_-copy-9" transform="translate(39.000000, 29.000000)">
		<g id="_xA7_-copy-3">
			<path class="st7" d="M0.6,17.1l1.9-0.3c0.2,0.9,0.5,1.6,0.9,2c0.4,0.4,1,0.6,1.7,0.6c0.7,0,1.3-0.2,1.7-0.6
				c0.4-0.4,0.6-0.8,0.6-1.3c0-0.4-0.1-0.7-0.4-1c-0.4-0.5-1.6-1.4-3.5-2.7c-1-0.7-1.7-1.2-2.1-1.6s-0.7-0.8-1-1.3
				C0.1,10.3,0,9.8,0,9.3c0-0.7,0.2-1.3,0.6-1.9s1-1,1.7-1.2c-0.5-0.5-0.8-1-1-1.4S1,3.9,1,3.5C1,2.5,1.3,1.7,2,1s1.6-1,2.7-1
				c1.3,0,2.3,0.3,3,1S9,2.6,9.1,3.8L7.2,4C7,3.1,6.8,2.5,6.4,2.1S5.6,1.6,4.9,1.6c-0.6,0-1.1,0.2-1.5,0.5S2.8,2.9,2.8,3.4
				c0,0.4,0.1,0.7,0.4,1c0.4,0.5,1.4,1.3,3.2,2.4C7.5,7.5,8.2,8,8.6,8.3c0.5,0.4,0.9,0.9,1.1,1.4c0.2,0.5,0.3,1,0.3,1.5
				c0,0.8-0.3,1.5-0.8,2.1c-0.3,0.3-0.8,0.7-1.6,1c0.6,0.4,1,0.9,1.2,1.4c0.3,0.5,0.4,1.1,0.4,1.6c0,0.6-0.2,1.2-0.5,1.8
				c-0.3,0.6-0.8,1-1.5,1.3S5.9,21,5.2,21c-1.3,0-2.4-0.3-3.1-1S0.8,18.3,0.6,17.1z M6.7,13.6c0.5-0.3,0.9-0.6,1.1-1
				s0.4-0.7,0.4-1.1c0-0.4-0.2-0.9-0.5-1.3C7.3,9.8,6.6,9.2,5.4,8.4C4.4,7.8,3.7,7.3,3.2,6.9c-0.6,0.3-1,0.7-1.2,1S1.7,8.6,1.7,9
				c0,0.5,0.2,0.9,0.5,1.3s1,1,2.1,1.7C5.2,12.6,6,13.1,6.7,13.6z"/>
		</g>
	</g>
	<g id="_x31_4a">
		<path class="st7" d="M38,58.7v-0.8h1.3v-3.8h-1.1v-0.6c0.6-0.1,1-0.3,1.3-0.5h0.8v4.9h1.1v0.8H38z M44.6,58.7v-1.5h-2.5v-0.7
			l2.3-3.5h1.2v3.4h0.7v0.8h-0.7v1.5H44.6z M43.1,56.4h1.5v-1.3c0-0.3,0-0.9,0-1.2h0c-0.1,0.3-0.3,0.6-0.5,0.9L43.1,56.4z
			 M48.3,58.8c-0.8,0-1.3-0.5-1.3-1.3c0-0.9,0.8-1.4,2.6-1.6c0-0.5-0.2-0.9-0.8-0.9c-0.4,0-0.8,0.2-1.2,0.4l-0.4-0.7
			c0.5-0.3,1.1-0.6,1.8-0.6c1.1,0,1.6,0.7,1.6,1.9v2.6h-0.9l-0.1-0.5h0C49.3,58.6,48.8,58.8,48.3,58.8z M48.6,58
			c0.4,0,0.6-0.2,1-0.5v-1C48.4,56.7,48,57,48,57.5C48,57.9,48.3,58,48.6,58z"/>
	</g>
	<g id="Group-2" transform="translate(54.000000, 46.000000)">
		<g id="Group_1_">
			<g id="Shape">
				<path class="st2" d="M10.1,0.2c0,0-0.1,0-0.1,0C9.4,0.1,8.8,0,8.1,0H8C5.8,0,3.8,0.9,2.3,2.4C0.8,4,0,6,0,8.1
					C0.1,12.5,3.5,16,7.9,16H8c0.7,0,1.3-0.1,2-0.3c0,0,0.1,0,0.1,0c3.5-1,6-4.1,5.9-7.8C15.9,4.1,13.5,1.1,10.1,0.2z M11.4,8.8H8.8
					v2.6c0,0.5-0.4,0.9-0.8,0.9s-0.8-0.4-0.8-0.9V8.8H4.6C4.1,8.8,3.7,8.5,3.7,8s0.4-0.8,0.9-0.8h2.6V4.6c0-0.5,0.4-0.9,0.8-0.9
					s0.8,0.4,0.8,0.9v2.6h2.6c0.5,0,0.9,0.4,0.9,0.8S11.9,8.8,11.4,8.8z"/>
				<path class="st4" d="M12.3,8c0,0.5-0.4,0.8-0.9,0.8H8.8v2.6c0,0.5-0.4,0.9-0.8,0.9s-0.8-0.4-0.8-0.9V8.8H4.6
					C4.1,8.8,3.7,8.5,3.7,8s0.4-0.8,0.9-0.8h2.6V4.6c0-0.5,0.4-0.9,0.8-0.9s0.8,0.4,0.8,0.9v2.6h2.6C11.9,7.2,12.3,7.5,12.3,8z"/>
			</g>
		</g>
	</g>
</g>
</svg>
