<svg version="1.1" id="Layer_1" xmlns="http://www.w3.org/2000/svg" x="0" y="0" viewBox="0 0 68.1 80" xml:space="preserve"><style>.st0{fill:#3e3832}.st1{fill:#fff}</style><path id="Fill-102" class="st0" d="M53.4.6H4.2C2.2.6.5 2.5.5 4.8v70.5c0 .4.1.8.2 1.2.2.7.5 1.2.9 1.7l.3.3c.5.5 1.2.8 2 .9h49.6c2 0 3.7-1.9 3.7-4.2V4.8C57 2.5 55.4.6 53.4.6"/><path class="st1" d="M47.8 6.5H16.6L5.7 18v52.2c0 1.9 1.3 3.4 2.9 3.4h39.2c1.6 0 2.9-1.5 2.9-3.4V9.9c0-1.9-1.3-3.4-2.9-3.4z"/><path id="Fill-59" d="M16.6 6.5v8c0 1.9-1.4 3.5-3.1 3.5H5.7L16.6 6.5z" fill="#c9c9c9"/><path id="Shape" class="st0" d="M55.6 43.3h-.2c-3.3.1-6.3 1.4-8.7 3.7-2.3 2.4-3.6 5.4-3.5 8.7.1 6.7 5.4 12 12 12h.2c6.8-.1 12.3-5.7 12.2-12.4-.2-6.8-5.4-12-12-12z"/><path class="st1" d="M63.8 55.4c0 .8-.6 1.4-1.4 1.4h-5v5c0 .8-.6 1.4-1.4 1.4s-1.4-.6-1.4-1.4v-5h-5c-.8 0-1.4-.6-1.4-1.4S49 54 49.8 54h5v-5c0-.8.6-1.4 1.4-1.4s1.4.6 1.4 1.4v5h5c.6 0 1.2.6 1.2 1.4z" id="line_x2F_add-1"/></svg>