<?xml version="1.0" encoding="utf-8"?>
<!-- Generator: Adobe Illustrator 22.1.0, SVG Export Plug-In . SVG Version: 6.00 Build 0)  -->
<svg version="1.1" id="Layer_1" xmlns="http://www.w3.org/2000/svg" xmlns:xlink="http://www.w3.org/1999/xlink" x="0px" y="0px"
	 viewBox="0 0 88 88" style="enable-background:new 0 0 88 88;" xml:space="preserve">
<style type="text/css">
	.st0{fill:#9BD0B0;}
	.st1{fill:#38A161;}
	.st2{fill:#3E3832;}
	.st3{filter:url(#Adobe_OpacityMaskFilter);}
	.st4{fill:#FFFFFF;}
	.st5{mask:url(#mask-2_1_);}
	.st6{fill:#C9C9C9;}
	.st7{fill:#505557;}
</style>
<g id="Interne-flater-_x2F_-card-_x2F_-ikon-vedtak-_x2F_-fullført-med-check">
	<g id="Oval-Copy-8">
		<circle class="st0" cx="44" cy="44" r="40"/>
		<path class="st1" d="M44,0C19.7,0,0,19.7,0,44s19.7,44,44,44s44-19.7,44-44S68.3,0,44,0z M44,84C21.9,84,4,66.1,4,44S21.9,4,44,4
			s40,17.9,40,40S66.1,84,44,84z"/>
	</g>
	<g id="dokumenter_x2F_-utklippstavlen-copy-7" transform="translate(26.000000, 18.000000)">
		<g id="Fill-102">
			<path class="st2" d="M34.7,0H2.4C1.1,0,0,1.2,0,2.7V49c0,0.3,0,0.6,0.1,0.8c0.1,0.4,0.3,0.8,0.6,1.1c0.1,0.1,0.1,0.1,0.2,0.2
				c0.4,0.3,0.8,0.6,1.3,0.6c0.1,0,0.2,0,0.2,0h32.3c1.3,0,2.4-1.2,2.4-2.7V2.7C37.1,1.2,36,0,34.7,0L34.7,0z"/>
		</g>
		<g id="Group" transform="translate(3.434062, 3.861000)">
			<g>
				<g id="farger_x2F_-ark_x2F_-lys-grå">
					<g id="Mask">
					</g>
					<defs>
						<filter id="Adobe_OpacityMaskFilter" filterUnits="userSpaceOnUse" x="-4.4" y="-6.3" width="38" height="56">
							<feColorMatrix  type="matrix" values="1 0 0 0 0  0 1 0 0 0  0 0 1 0 0  0 0 0 1 0"/>
						</filter>
					</defs>
					<mask maskUnits="userSpaceOnUse" x="-4.4" y="-6.3" width="38" height="56" id="mask-2_1_">
						<g class="st3">
							<path id="path-1_1_" class="st4" d="M0,7.5v34.2C0,43,0.9,44,1.9,44h25.7c1.1,0,1.9-1,1.9-2.2V2.2C29.5,1,28.7,0,27.6,0H7.1
								L0,7.5z"/>
						</g>
					</mask>
					<g id="V_x2699__xFE0F__x2F_farger_x2F_-ark_x2F_-hvit" class="st5">
						<g transform="translate(-4.375250, -6.287914)">
							<g>
								<rect x="0" y="0" class="st4" width="38" height="56"/>
							</g>
						</g>
					</g>
				</g>
				<g id="Fill-59">
					<path class="st6" d="M7.1,0v5.3c0,1.3-0.9,2.3-2,2.3H0L7.1,0z"/>
				</g>
			</g>
		</g>
	</g>
	<g id="Group-Copy" transform="translate(54.000000, 46.000000)">
		<g id="Shape">
			<path class="st1" d="M8,0C3.6,0,0,3.6,0,8s3.6,8,8,8c4.4,0,8-3.6,8-8S12.4,0,8,0z M11.6,5.9l-5,4.7c-0.1,0.1-0.1,0.1-0.2,0.1
				c-0.1,0-0.2,0-0.2-0.1L4.4,8.9c-0.1-0.1-0.1-0.3,0-0.5c0.1-0.1,0.3-0.1,0.5,0l1.4,1.4l4.8-4.4c0.1-0.1,0.3-0.1,0.5,0
				C11.7,5.6,11.7,5.8,11.6,5.9z"/>
		</g>
		<g id="Path">
			<path class="st4" d="M11.5,6.5L11.5,6.5l-4.4,4.2C7,10.9,6.8,11,6.5,11c-0.2,0-0.4-0.1-0.6-0.2L4.5,9.2C4.2,8.9,4.2,8.3,4.5,8
				c0.3-0.3,0.9-0.3,1.2,0l0.9,0.9l3.8-3.6C10.5,5.1,10.7,5,10.9,5c0.2,0,0.4,0.1,0.6,0.3C11.8,5.7,11.8,6.2,11.5,6.5z"/>
		</g>
	</g>
	<g id="_xA7_-copy-9" transform="translate(39.000000, 29.000000)">
		<g id="_xA7_-copy-3">
			<path class="st7" d="M0.6,17.1l1.9-0.3c0.2,0.9,0.5,1.6,0.9,2c0.4,0.4,1,0.6,1.7,0.6c0.7,0,1.3-0.2,1.7-0.6
				c0.4-0.4,0.6-0.8,0.6-1.3c0-0.4-0.1-0.7-0.4-1c-0.4-0.5-1.6-1.4-3.5-2.7c-1-0.7-1.7-1.2-2.1-1.6s-0.7-0.8-1-1.3
				C0.1,10.3,0,9.8,0,9.3c0-0.7,0.2-1.3,0.6-1.9s1-1,1.7-1.2c-0.5-0.5-0.8-1-1-1.4S1,3.9,1,3.5C1,2.5,1.3,1.7,2,1s1.6-1,2.7-1
				c1.3,0,2.3,0.3,3,1S9,2.6,9.1,3.8L7.2,4C7,3.1,6.8,2.5,6.4,2.1S5.6,1.6,4.9,1.6c-0.6,0-1.1,0.2-1.5,0.5S2.8,2.9,2.8,3.4
				c0,0.4,0.1,0.7,0.4,1c0.4,0.5,1.4,1.3,3.2,2.4C7.5,7.5,8.2,8,8.6,8.3c0.5,0.4,0.9,0.9,1.1,1.4c0.2,0.5,0.3,1,0.3,1.5
				c0,0.8-0.3,1.5-0.8,2.1c-0.3,0.3-0.8,0.7-1.6,1c0.6,0.4,1,0.9,1.2,1.4c0.3,0.5,0.4,1.1,0.4,1.6c0,0.6-0.2,1.2-0.5,1.8
				c-0.3,0.6-0.8,1-1.5,1.3S5.9,21,5.2,21c-1.3,0-2.4-0.3-3.1-1S0.8,18.3,0.6,17.1z M6.7,13.6c0.5-0.3,0.9-0.6,1.1-1
				s0.4-0.7,0.4-1.1c0-0.4-0.2-0.9-0.5-1.3C7.3,9.8,6.6,9.2,5.4,8.4C4.4,7.8,3.7,7.3,3.2,6.9c-0.6,0.3-1,0.7-1.2,1S1.7,8.6,1.7,9
				c0,0.5,0.2,0.9,0.5,1.3s1,1,2.1,1.7C5.2,12.6,6,13.1,6.7,13.6z"/>
		</g>
	</g>
	<g id="_x31_4a">
		<path class="st7" d="M38,58.7v-0.8h1.3v-3.8h-1.1v-0.6c0.6-0.1,1-0.3,1.3-0.5h0.8v4.9h1.1v0.8H38z M44.6,58.7v-1.5h-2.5v-0.7
			l2.3-3.5h1.2v3.4h0.7v0.8h-0.7v1.5H44.6z M43.1,56.4h1.5v-1.3c0-0.3,0-0.9,0-1.2h0c-0.1,0.3-0.3,0.6-0.5,0.9L43.1,56.4z
			 M48.3,58.8c-0.8,0-1.3-0.5-1.3-1.3c0-0.9,0.8-1.4,2.6-1.6c0-0.5-0.2-0.9-0.8-0.9c-0.4,0-0.8,0.2-1.2,0.4l-0.4-0.7
			c0.5-0.3,1.1-0.6,1.8-0.6c1.1,0,1.6,0.7,1.6,1.9v2.6h-0.9l-0.1-0.5h0C49.3,58.6,48.8,58.8,48.3,58.8z M48.6,58
			c0.4,0,0.6-0.2,1-0.5v-1C48.4,56.7,48,57,48,57.5C48,57.9,48.3,58,48.6,58z"/>
	</g>
</g>
</svg>
