<svg version="1.1" id="Layer_1" xmlns="http://www.w3.org/2000/svg" x="0" y="0" viewBox="0 0 91 49" xml:space="preserve" enable-background="new 0 0 91 49"><style>.st2{fill:#fff}</style><g id="Symbols_1_"><g id="Artboard_1_"><g id="Group-12-Copy_1_"><path id="Fill-1_1_" fill="#9b9b9b" d="M8.4 22.4h73.9V1H8.7l-.3.2z"/><g id="Group-11_1_" transform="translate(0 .135)"><g id="Group-4_1_" transform="translate(81)"><defs><filter id="Adobe_OpacityMaskFilter" filterUnits="userSpaceOnUse" x=".5" y=".9" width="9.2" height="44"><feColorMatrix values="1 0 0 0 0 0 1 0 0 0 0 0 1 0 0 0 0 0 1 0"/></filter></defs><mask maskUnits="userSpaceOnUse" x=".5" y=".9" width="9.2" height="44" id="mask-2_2_"><g filter="url(#Adobe_OpacityMaskFilter)"><path id="path-1_2_" class="st2" d="M.5.9h9.2v44H.5z"/></g></mask><path id="Fill-2_1_" d="M.8 34.1L6.5 44c.9 1.6 3.2.9 3.2-1V15.7c0-.3-.1-.6-.2-.8l-8-13.8C1.2.6.5.8.5 1.4V33c0 .4.1.8.3 1.1" mask="url(#mask-2_2_)" fill="#8e9294"/></g><g id="Group-7_1_"><defs><filter id="Adobe_OpacityMaskFilter_1_" filterUnits="userSpaceOnUse" x="0" y=".9" width="9.2" height="44"><feColorMatrix values="1 0 0 0 0 0 1 0 0 0 0 0 1 0 0 0 0 0 1 0"/></filter></defs><mask maskUnits="userSpaceOnUse" x="0" y=".9" width="9.2" height="44" id="mask-4_2_"><g filter="url(#Adobe_OpacityMaskFilter_1_)"><path id="path-3_2_" class="st2" d="M0 .9h9.2v44H0z"/></g></mask><path id="Fill-5_1_" d="M8.8 34.1L3.2 44c-.9 1.5-3.2.9-3.2-1V15.7c0-.3.1-.6.2-.8l8-13.8c.3-.5 1-.3 1 .3V33c0 .4-.1.8-.4 1.1" mask="url(#mask-4_2_)" fill="#8e9294"/></g><g id="Group-10_1_" transform="translate(0 15)"><defs><filter id="Adobe_OpacityMaskFilter_2_" filterUnits="userSpaceOnUse" x="0" y="-.4" width="90.7" height="32.4"><feColorMatrix values="1 0 0 0 0 0 1 0 0 0 0 0 1 0 0 0 0 0 1 0"/></filter></defs><mask maskUnits="userSpaceOnUse" x="0" y="-.4" width="90.7" height="32.4" id="mask-6_2_"><g filter="url(#Adobe_OpacityMaskFilter_2_)"><path id="path-5_2_" class="st2" d="M0-.4h90.7V32H0z"/></g></mask><path id="Fill-8_1_" d="M30.7 4.3c.3.5.9.9 1.5.9l12.8.2h11.9c.9 0 1.7-.5 2.2-1.2L61.8 0c.2-.3.4-.4.8-.4h26.8c.7 0 1.3.6 1.3 1.3v29.8c0 .7-.6 1.3-1.3 1.3h-88C.6 32 0 31.4 0 30.7V.9C0 .2.6-.4 1.3-.4h26.2c.3 0 .6.2.8.4l2.4 4.3z" mask="url(#mask-6_2_)" fill="#d0d0d0"/></g></g></g></g></g></svg>