<svg version="1.1" id="Layer_1" xmlns="http://www.w3.org/2000/svg" x="0" y="0" viewBox="0 0 24 32" xml:space="preserve"><style>.st1{fill:#3e3832}</style><g transform="translate(-697 -433)" id="Vedtakstøtte---Flyt-"><path d="M27.9 8.4c0-.1-.1-.2-.1-.2l-8-8c-.1-.1-.1-.1-.2-.1-.1-.1-.2-.1-.3-.1H4.7c-.4 0-.7.3-.7.7v30.7c0 .3.3.6.7.6h22.7c.4 0 .7-.3.7-.7V8.7c-.1-.1-.1-.2-.2-.3zM20 2.3L25.7 8H20V2.3zM5.3 30.7V1.3h13.3v7.3c0 .4.3.7.7.7h7.3v21.3H5.3z" fill-rule="evenodd" clip-rule="evenodd" fill="#3e3832" transform="translate(693 433)" id="Group-2"/></g><path class="st1" d="M5.4 14.8h1.7c1.3 0 2.2.4 2.2 1.7 0 1.2-.9 1.8-2.2 1.8h-1v2.3h-.7v-5.8zm1.6 3c1 0 1.5-.4 1.5-1.2 0-.9-.5-1.1-1.6-1.1h-.8v2.3H7zM10.5 14.8H12c1.8 0 2.8 1.1 2.8 2.9 0 1.9-1 3-2.8 3h-1.5v-5.9zm1.4 5.3c1.4 0 2.1-.9 2.1-2.4s-.7-2.3-2.1-2.3h-.7v4.7h.7zM16 14.8h3.4v.6h-2.7v2H19v.6h-2.3v2.6H16v-5.8z"/></svg>