<?xml version="1.0" encoding="utf-8"?>
<!-- Generator: Adobe Illustrator 22.1.0, SVG Export Plug-In . SVG Version: 6.00 Build 0)  -->
<svg version="1.1" id="Layer_1" xmlns="http://www.w3.org/2000/svg" xmlns:xlink="http://www.w3.org/1999/xlink" x="0px" y="0px"
	 viewBox="0 0 32 32" style="enable-background:new 0 0 32 32;" xml:space="preserve">
<style type="text/css">
	.st0{fill-rule:evenodd;clip-rule:evenodd;}
	.st1{fill-rule:evenodd;clip-rule:evenodd;fill:#FFFFFF;}
</style>
<path d="M27.9,8.4c0-0.1-0.1-0.2-0.1-0.2l-8-8c-0.1-0.1-0.1-0.1-0.2-0.1C19.5,0,19.4,0,19.3,0H4.7C4.3,0,4,0.3,4,0.7v30.7
	C4,31.7,4.3,32,4.7,32h22.7c0.4,0,0.7-0.3,0.7-0.7V8.7C28,8.6,28,8.5,27.9,8.4z M20,2.3L25.7,8H20V2.3z M26.7,30.7H5.3V1.3h13.3v7.3
	c0,0.4,0.3,0.7,0.7,0.7h7.3V30.7z"/>
<path class="st0" d="M19.8,18.8c0-0.4-0.1-0.8-0.3-1.2c-0.2-0.4-0.5-0.7-0.8-1.1c-0.3-0.3-0.9-0.7-1.7-1.2c-1.3-0.9-2.2-1.5-2.5-1.9
	c-0.2-0.2-0.3-0.5-0.3-0.8c0-0.3,0.2-0.7,0.5-0.9c0.3-0.3,0.7-0.4,1.2-0.4c0.5,0,0.9,0.1,1.1,0.4c0.3,0.3,0.5,0.8,0.6,1.4l1.5-0.2
	c-0.1-1-0.5-1.7-1-2.2c-0.6-0.5-1.4-0.8-2.4-0.8c-0.9,0-1.6,0.3-2.1,0.8s-0.8,1.2-0.8,1.9c0,0.4,0.1,0.7,0.2,1
	c0.2,0.3,0.4,0.7,0.8,1.1c-0.6,0.2-1,0.5-1.3,0.9c-0.3,0.4-0.5,0.9-0.5,1.5c0,0.4,0.1,0.8,0.3,1.2s0.5,0.7,0.8,1s0.9,0.7,1.7,1.2
	c1.5,1,2.4,1.7,2.8,2.1c0.2,0.2,0.3,0.5,0.3,0.8c0,0.4-0.2,0.7-0.5,1c-0.3,0.3-0.7,0.4-1.3,0.4c-0.6,0-1-0.1-1.3-0.4
	c-0.3-0.3-0.6-0.8-0.7-1.6l-1.5,0.2c0.1,1,0.5,1.7,1.1,2.3c0.6,0.5,1.4,0.8,2.5,0.8c0.6,0,1.1-0.1,1.6-0.4c0.5-0.2,0.9-0.6,1.2-1
	c0.3-0.4,0.4-0.9,0.4-1.4c0-0.5-0.1-0.9-0.3-1.3c-0.2-0.4-0.5-0.8-1-1.1c0.6-0.3,1-0.5,1.2-0.8C19.6,19.9,19.8,19.4,19.8,18.8z"/>
<path class="st1" d="M18.1,19.9c-0.2,0.3-0.5,0.5-0.9,0.8c-0.5-0.4-1.1-0.8-1.9-1.3c-0.9-0.5-1.4-1-1.7-1.3c-0.2-0.3-0.4-0.7-0.4-1
	c0-0.3,0.1-0.6,0.3-0.9s0.5-0.5,0.9-0.8c0.4,0.3,0.9,0.7,1.7,1.2c0.9,0.6,1.5,1.1,1.8,1.4c0.3,0.4,0.4,0.7,0.4,1
	C18.4,19.3,18.3,19.6,18.1,19.9z"/>
</svg>
