<svg id="Layer_1" data-name="Layer 1" xmlns="http://www.w3.org/2000/svg" viewBox="0 0 24 32"><defs><style>.cls-1{fill-rule:evenodd;}</style></defs><title>paragraf_document</title><path class="cls-1" d="M19,17.36h0a2.34,2.34,0,0,1,.35,1.79,2,2,0,0,1-.62,1.11,4.27,4.27,0,0,1-1,.56l-.64-.5a2,2,0,0,0,.91-.87,1.12,1.12,0,0,0,0-1c-.28-.69-1.43-1.39-1.89-1.69a18.7,18.7,0,0,1-2-1.53,2.43,2.43,0,0,1-.88-2.29c0-.49.69-2.12,3.05-1.91a2.73,2.73,0,0,1,2.48,2.57l-1.33.14a3.29,3.29,0,0,0-.4-1.13,1.52,1.52,0,0,0-1.89-.33A1.14,1.14,0,0,0,14.78,14a6.93,6.93,0,0,0,1,.82c.66.49,2.26,1.48,2.57,1.75A3.72,3.72,0,0,1,19,17.36Z" transform="translate(-4)"/><path class="cls-1" d="M14.16,15.21l.63.52s-.74.44-.91.84a1.37,1.37,0,0,0,.22,1.57,33.72,33.72,0,0,0,3.07,2.19h0a6.57,6.57,0,0,1,1.22,1.07,2.43,2.43,0,0,1,.54,1.29,2.3,2.3,0,0,1-.55,1.76,2.24,2.24,0,0,1-1.06.73,3.82,3.82,0,0,1-2.4,0,2.65,2.65,0,0,1-1.4-1.06A3.8,3.8,0,0,1,13,22.68l1.29-.19s.22,1.56,1.31,1.71c0,0,1.47.35,2-.8s-1.09-1.94-2.19-2.73-1.9-1.16-2.37-1.93a2.42,2.42,0,0,1-.15-2.5A2.14,2.14,0,0,1,14.16,15.21Z" transform="translate(-4)"/><path d="M28,8.41a.78.78,0,0,0-.15-.22l-8-8a.78.78,0,0,0-.22-.15.75.75,0,0,0-.26,0H4.67A.67.67,0,0,0,4,.67V31.33a.67.67,0,0,0,.67.67H27.33a.67.67,0,0,0,.67-.67V8.67A.75.75,0,0,0,28,8.41ZM20,2.28,25.72,8H20Zm6.67,28.39H5.33V1.33H18.67V8.67a.67.67,0,0,0,.66.66h7.34Z" transform="translate(-4)"/></svg>