<svg version="1.1" id="Layer_1" xmlns="http://www.w3.org/2000/svg" x="0" y="0" viewBox="0 0 40 40" xml:space="preserve" enable-background="new 0 0 40 40"><style>.st2{fill:#fff}.st8{fill:#8e9294}.st21{fill:#fecb86}.st23{fill:#535756}</style><g id="Mask"><circle id="path-1_1_" cx="20" cy="20" r="20" fill="#d1e4f4"/></g><defs><filter id="Adobe_OpacityMaskFilter" filterUnits="userSpaceOnUse" x="3" y="7" width="31.1" height="37.4"><feColorMatrix values="1 0 0 0 0 0 1 0 0 0 0 0 1 0 0 0 0 0 1 0"/></filter></defs><mask maskUnits="userSpaceOnUse" x="3" y="7" width="31.1" height="37.4" id="mask-2_1_"><g filter="url(#Adobe_OpacityMaskFilter)"><circle id="path-1_2_" class="st2" cx="20" cy="20" r="20"/></g></mask><path id="Fill-4" d="M3 17.9l5.9 25.2c.2.9 1.1 1.5 2 1.2l21.8-5.1c.9-.2 1.5-1.1 1.2-2L27.2 8.3c-.2-.9-1.1-1.5-2-1.2L7.4 11.2 3 17.9z" mask="url(#mask-2_1_)" fill="#fff"/><defs><filter id="Adobe_OpacityMaskFilter_1_" filterUnits="userSpaceOnUse" x="3" y="11.2" width="5.3" height="6.7"><feColorMatrix values="1 0 0 0 0 0 1 0 0 0 0 0 1 0 0 0 0 0 1 0"/></filter></defs><mask maskUnits="userSpaceOnUse" x="3" y="11.2" width="5.3" height="6.7" id="mask-2_2_"><g filter="url(#Adobe_OpacityMaskFilter_1_)"><circle id="path-1_3_" class="st2" cx="20" cy="20" r="20"/></g></mask><path id="Fill-6" d="M7.4 11.2l.9 3.8c.2.9-.3 1.8-1.2 2l-4 .9 4.3-6.7z" mask="url(#mask-2_2_)" fill="#c0c0be"/><defs><filter id="Adobe_OpacityMaskFilter_2_" filterUnits="userSpaceOnUse" x="7" y="18.7" width="9.4" height="3.3"><feColorMatrix values="1 0 0 0 0 0 1 0 0 0 0 0 1 0 0 0 0 0 1 0"/></filter></defs><mask maskUnits="userSpaceOnUse" x="7" y="18.7" width="9.4" height="3.3" id="mask-2_9_"><g filter="url(#Adobe_OpacityMaskFilter_2_)"><circle id="path-1_10_" class="st2" cx="20" cy="20" r="20"/></g></mask><g id="Stroke-8" mask="url(#mask-2_9_)"><path class="st8" d="M7.7 22c-.3 0-.6-.2-.7-.6-.1-.4.1-.8.5-.9l7.9-1.9c.4-.1.8.1.9.5.1.4-.1.8-.5.9l-7.9 2h-.2z"/></g><defs><filter id="Adobe_OpacityMaskFilter_3_" filterUnits="userSpaceOnUse" x="7.9" y="20.2" width="17.9" height="5.3"><feColorMatrix values="1 0 0 0 0 0 1 0 0 0 0 0 1 0 0 0 0 0 1 0"/></filter></defs><mask maskUnits="userSpaceOnUse" x="7.9" y="20.2" width="17.9" height="5.3" id="mask-2_5_"><g filter="url(#Adobe_OpacityMaskFilter_3_)"><circle id="path-1_6_" class="st2" cx="20" cy="20" r="20"/></g></mask><g id="Stroke-10" mask="url(#mask-2_5_)"><path class="st8" d="M8.6 25.5c-.3 0-.6-.2-.7-.6-.1-.4.1-.8.5-.9l16.5-3.9c.4-.1.8.1.9.5.1.4-.1.8-.5.9l-16.6 4h-.1z"/></g><defs><filter id="Adobe_OpacityMaskFilter_4_" filterUnits="userSpaceOnUse" x="8.7" y="23.8" width="17.9" height="5.3"><feColorMatrix values="1 0 0 0 0 0 1 0 0 0 0 0 1 0 0 0 0 0 1 0"/></filter></defs><mask maskUnits="userSpaceOnUse" x="8.7" y="23.8" width="17.9" height="5.3" id="mask-2_6_"><g filter="url(#Adobe_OpacityMaskFilter_4_)"><circle id="path-1_7_" class="st2" cx="20" cy="20" r="20"/></g></mask><g id="Stroke-12" mask="url(#mask-2_6_)"><path class="st8" d="M9.4 29.1c-.3 0-.6-.2-.7-.6-.1-.4.1-.8.5-.9l16.5-3.9c.4-.1.8.1.9.5.1.4-.1.8-.5.9l-16.5 4h-.2z"/></g><defs><filter id="Adobe_OpacityMaskFilter_5_" filterUnits="userSpaceOnUse" x="9.5" y="27.3" width="18" height="5.4"><feColorMatrix values="1 0 0 0 0 0 1 0 0 0 0 0 1 0 0 0 0 0 1 0"/></filter></defs><mask maskUnits="userSpaceOnUse" x="9.5" y="27.3" width="18" height="5.4" id="mask-2_7_"><g filter="url(#Adobe_OpacityMaskFilter_5_)"><circle id="path-1_8_" class="st2" cx="20" cy="20" r="20"/></g></mask><g id="Stroke-14" mask="url(#mask-2_7_)"><path class="st8" d="M10.2 32.7c-.3 0-.6-.2-.7-.6-.1-.4.2-.8.6-.9l16.5-3.9c.4-.1.8.2.9.6s-.2.8-.6.9l-16.5 3.9h-.2z"/></g><defs><filter id="Adobe_OpacityMaskFilter_6_" filterUnits="userSpaceOnUse" x="10.3" y="30.6" width="18" height="5.4"><feColorMatrix values="1 0 0 0 0 0 1 0 0 0 0 0 1 0 0 0 0 0 1 0"/></filter></defs><mask maskUnits="userSpaceOnUse" x="10.3" y="30.6" width="18" height="5.4" id="mask-2_8_"><g filter="url(#Adobe_OpacityMaskFilter_6_)"><circle id="path-1_9_" class="st2" cx="20" cy="20" r="20"/></g></mask><g id="Stroke-16" mask="url(#mask-2_8_)"><path class="st8" d="M11 36c-.3 0-.6-.2-.7-.6-.1-.4.2-.8.6-.9l16.5-3.9c.4-.1.8.2.9.6.1.4-.2.8-.6.9L11.2 36H11z"/></g><defs><filter id="Adobe_OpacityMaskFilter_7_" filterUnits="userSpaceOnUse" x="11" y="34.2" width="18" height="5.4"><feColorMatrix values="1 0 0 0 0 0 1 0 0 0 0 0 1 0 0 0 0 0 1 0"/></filter></defs><mask maskUnits="userSpaceOnUse" x="11" y="34.2" width="18" height="5.4" id="mask-2_3_"><g filter="url(#Adobe_OpacityMaskFilter_7_)"><circle id="path-1_4_" class="st2" cx="20" cy="20" r="20"/></g></mask><g id="Stroke-18" mask="url(#mask-2_3_)"><path class="st8" d="M11.8 39.5c-.3 0-.6-.2-.7-.6-.1-.4.2-.8.6-.9l16.5-3.9c.4-.1.8.2.9.6s-.2.8-.6.9L12 39.5h-.2z"/></g><path id="Fill-46" d="M34.4 16l-1-.8c-.6-.5-.7-1.3-.2-1.9.5-.6 1.3-.7 1.9-.2l1 .8c.6.5.7 1.3.2 1.9-.5.6-1.3.7-1.9.2z" fill="#c42b34"/><path id="Fill-49" fill="#e1cfb4" d="M21.2 28.2L19.8 33l4.4-2.3L23 29z"/><path class="st21" d="M33.8 14.8l-11.3 14-.3.2s0-.1-.1-.1c-.2-.2-.6-.1-.8-.2-.2-.2-.1-.5-.1-.5l.2-.3 11.4-14 1 .9z"/><path d="M34.8 15.6l-11.3 14-.2.3c-.2-.1-.4.1-.7-.1-.3-.2-.2-.5-.3-.7l.2-.3 11.3-14 1 .8z" fill="#faa736"/><path class="st21" d="M35.8 16.4l-11.4 14-.2.3s-.3.1-.5 0c-.2-.2-.1-.5-.4-.7l-.1-.1.2-.3 11.3-14 1.1.8z"/><path id="Fill-63" class="st23" d="M19.8 33l1.6-.8-1.1-.9z"/><path id="Fill-65" class="st23" d="M35.8 16.4l-3-2.4.3-.5 3 2.5z"/></svg>