<svg version="1.1" id="Layer_1" xmlns="http://www.w3.org/2000/svg" x="0" y="0" viewBox="0 0 40 40" xml:space="preserve" enable-background="new 0 0 40 40"><style>.st2{fill:#fff}</style><g id="Symbols"><g id="mellomlagre"><g id="Group-75-Copy"><g id="Mask"><circle id="path-1_1_" cx="20" cy="20" r="20" fill="#d1e4f4"/></g><defs><filter id="Adobe_OpacityMaskFilter" filterUnits="userSpaceOnUse" x="5" y="9" width="28" height="34"><feColorMatrix values="1 0 0 0 0 0 1 0 0 0 0 0 1 0 0 0 0 0 1 0"/></filter></defs><mask maskUnits="userSpaceOnUse" x="5" y="9" width="28" height="34" id="mask-2_1_"><g filter="url(#Adobe_OpacityMaskFilter)"><circle id="path-1_2_" class="st2" cx="20" cy="20" r="20"/></g></mask><path id="Rectangle" d="M9 9h12.7c.8 0 1.5.5 1.8 1.2l1.5 3.3h4c2.2 0 4 1.8 4 4V39c0 2.2-1.8 4-4 4H9c-2.2 0-4-1.8-4-4V13c0-2.2 1.8-4 4-4z" mask="url(#mask-2_1_)" fill="#f4ba84"/><defs><filter id="Adobe_OpacityMaskFilter_1_" filterUnits="userSpaceOnUse" x="8" y="18" width="28" height="25"><feColorMatrix values="1 0 0 0 0 0 1 0 0 0 0 0 1 0 0 0 0 0 1 0"/></filter></defs><mask maskUnits="userSpaceOnUse" x="8" y="18" width="28" height="25" id="mask-2_2_"><g filter="url(#Adobe_OpacityMaskFilter_1_)"><circle id="path-1_3_" class="st2" cx="20" cy="20" r="20"/></g></mask><path id="Rectangle_1_" d="M14 18h18c2.2 0 4 1.8 4 4v17c0 2.2-1.8 4-4 4H8c1.3-.7 2-1.3 2-2v-4-15c0-2.2 1.8-4 4-4z" mask="url(#mask-2_2_)" fill="#ffd7a3"/><defs><filter id="Adobe_OpacityMaskFilter_2_" filterUnits="userSpaceOnUse" x="5" y="14" width="5" height="29"><feColorMatrix values="1 0 0 0 0 0 1 0 0 0 0 0 1 0 0 0 0 0 1 0"/></filter></defs><mask maskUnits="userSpaceOnUse" x="5" y="14" width="5" height="29" id="mask-2_3_"><g filter="url(#Adobe_OpacityMaskFilter_2_)"><circle id="path-1_4_" class="st2" cx="20" cy="20" r="20"/></g></mask><path id="Rectangle_2_" d="M7.5 14c1.4 0 2.5 1.1 2.5 2.5v24c0 1.4-1.1 2.5-2.5 2.5S5 41.9 5 40.5v-24C5 15.1 6.1 14 7.5 14z" mask="url(#mask-2_3_)" fill="#f4ba84"/><defs><filter id="Adobe_OpacityMaskFilter_3_" filterUnits="userSpaceOnUse" x="26" y="15" width="12" height="12"><feColorMatrix values="1 0 0 0 0 0 1 0 0 0 0 0 1 0 0 0 0 0 1 0"/></filter></defs><mask maskUnits="userSpaceOnUse" x="26" y="15" width="12" height="12" id="mask-2_4_"><g filter="url(#Adobe_OpacityMaskFilter_3_)"><circle id="path-1_5_" class="st2" cx="20" cy="20" r="20"/></g></mask><path id="Shape" d="M32 15c-3.3 0-6 2.7-6 6s2.7 6 6 6 6-2.7 6-6-2.7-6-6-6z" mask="url(#mask-2_4_)" fill="#6ab889"/><defs><filter id="Adobe_OpacityMaskFilter_4_" filterUnits="userSpaceOnUse" x="28.5" y="18.5" width="7" height="5"><feColorMatrix values="1 0 0 0 0 0 1 0 0 0 0 0 1 0 0 0 0 0 1 0"/></filter></defs><mask maskUnits="userSpaceOnUse" x="28.5" y="18.5" width="7" height="5" id="mask-2_5_"><g filter="url(#Adobe_OpacityMaskFilter_4_)"><circle id="path-1_6_" class="st2" cx="20" cy="20" r="20"/></g></mask><path id="Path" d="M30.5 22.6c.1 0 .1-.1.2-.1s.1 0 .2.1l-.2-.2-.2.2zm.2-.9l3.5-3c.3-.3.8-.3 1.1 0 .3.3.3.8 0 1.1l-4 3.5c-.2.1-.3.2-.5.2s-.4-.1-.6-.2L28.7 22c-.3-.3-.3-.8 0-1.1.3-.3.8-.3 1.1 0l.9.8z" mask="url(#mask-2_5_)" fill="#fff"/></g></g></g></svg>