<svg version="1.1" id="Layer_1" xmlns="http://www.w3.org/2000/svg" x="0" y="0" viewBox="0 0 40 40" xml:space="preserve"><style>.st1{fill:#c0c0be}.st2{fill:#8e9294}.st4{fill:none}.st6{fill:#3e3832}</style><path d="M40 20C40 9 31 0 20 0S0 9 0 20c0 5.3 2.1 10.2 5.5 13.8V18l6.1-5.9 10.3-.1c1.7-2.5 4.9-3.9 8.1-3.2 4.1 1 6.7 5.1 5.7 9.3-.4 1.9-1.5 3.5-3 4.5v12.8C37.1 31.8 40 26.2 40 20z" fill="#d1e4f4"/><path class="st1" d="M11.6 12.1l-6.1 5.8 6.1-5.8z"/><path class="st1" d="M11.6 16.1V12l-6.1 5.9h4.4c.9 0 1.7-.8 1.7-1.8z"/><path class="st2" d="M9.5 23.3h8.6c.4 0 .7-.3.7-.8 0-.4-.3-.7-.8-.7H9.4c-.4 0-.7.3-.7.8.1.3.4.7.8.7zM8.8 26.4c0 .4.3.7.7.7l17.9-.1c.4 0 .7-.3.7-.8 0-.4-.3-.7-.7-.7l-17.9.2c-.4 0-.7.3-.7.7zM27.4 29.4l-17.8.1c-.4 0-.7.3-.7.8 0 .4.3.7.7.7l17.8-.1c.4 0 .7-.3.7-.8.1-.3-.3-.7-.7-.7zM27.4 33.3l-17.8.1c-.4 0-.8.4-.8.8s.4.8.8.8l17.8-.1c.4 0 .8-.4.8-.8 0-.5-.3-.8-.8-.8zM27.4 38.4c.4 0 .8-.4.8-.8s-.4-.8-.8-.8L9.6 37h-.1c1 .6 2 1.1 3 1.5l14.9-.1zM8.7 41.6c0 .4.4.8.8.8l17.9-.1c.4 0 .8-.4.8-.8s-.4-.8-.8-.8l-17.9.2c-.4 0-.8.3-.8.7z"/><path d="M35.7 18.1c-.4 1.9-1.5 3.5-3 4.5-1.7 1.2-4 1.8-6.2 1.3-4.1-1-6.7-5.1-5.7-9.3.2-1 .6-1.9 1.2-2.7 1.7-2.5 4.9-3.9 8-3.2 4.1 1.1 6.6 5.2 5.7 9.4z" fill="#99bdcd"/><path class="st4" d="M28.3 19.3c-.3 0-.5.2-.5.5s.2.5.5.5.5-.2.5-.5-.3-.5-.5-.5zM26.9 15.5c.3 0 .5-.2.5-.5 0 0 0-.6.3-.9.2-.2.4-.3.7-.3 0 0 .8.2.9 1.3 0 .7-.3.9-.4 1-.2 0-.6.2-.9.6-.3.5-.4 1.1-.2 1.9.1.2.3.4.5.4h.1c.3-.1.4-.3.3-.6-.1-.5-.1-.8 0-1.1.1-.2.3-.2.4-.2.4-.1 1.2-.7 1.1-2-.1-1.5-1.1-2-1.7-2.2-.6 0-1.1.2-1.5.6-.6.6-.6 1.5-.6 1.6 0 .2.2.4.5.4zM8.8 26.4c0 .4.3.7.7.7l17.9-.1c.4 0 .7-.3.7-.8 0-.4-.3-.7-.7-.7l-17.9.2c-.4 0-.7.3-.7.7zM27.4 33.3l-17.8.1c-.4 0-.8.4-.8.8s.4.8.8.8l17.8-.1c.4 0 .8-.4.8-.8 0-.5-.3-.8-.8-.8zM9.5 23.3h8.6c.4 0 .7-.3.7-.8 0-.4-.3-.7-.8-.7H9.4c-.4 0-.7.3-.7.8.1.3.4.7.8.7zM27.4 29.4l-17.8.1c-.4 0-.7.3-.7.8 0 .4.3.7.7.7l17.8-.1c.4 0 .7-.3.7-.8.1-.3-.3-.7-.7-.7z"/><path d="M32.7 22.6c-1.7 1.3-4 1.8-6.2 1.3-4.1-1-6.7-5.1-5.7-9.3.2-1 .6-1.9 1.2-2.7l-10.2.1v4.1c0 1-.8 1.8-1.8 1.8H5.6v15.8C6.7 35 8 36.1 9.5 37h.1l17.8-.1c.4 0 .8.3.8.8 0 .4-.3.8-.8.8l-14.9.1c2.3.9 4.9 1.5 7.5 1.5 4.8 0 9.2-1.7 12.7-4.5v-13zm-5.3 2.9c.4 0 .8.3.8.7 0 .4-.3.8-.7.8l-17.9.1c-.4 0-.7-.3-.7-.7 0-.4.3-.8.7-.8l17.8-.1zm.8 4.7c0 .4-.3.8-.7.8H9.6c-.4 0-.7-.3-.7-.7 0-.4.3-.8.7-.8l17.8-.1c.4 0 .8.4.8.8zM9.5 21.8h8.6c.4 0 .8.3.8.7 0 .4-.3.8-.7.8H9.6c-.4 0-.7-.3-.7-.7-.1-.5.2-.8.6-.8zm17.9 13l-17.8.1c-.4 0-.8-.3-.8-.8 0-.4.3-.8.8-.8l17.8-.1c.4 0 .8.3.8.8s-.3.8-.8.8z" fill="#fff"/><path class="st6" d="M26.9 15.5c.3 0 .5-.2.5-.5 0 0 0-.6.3-.9.2-.2.4-.3.7-.3 0 0 .8.2.9 1.3 0 .7-.3.9-.4 1-.2 0-.6.2-.9.6-.3.5-.4 1.1-.2 1.9.1.2.3.4.5.4h.1c.3-.1.4-.3.3-.6-.1-.5-.1-.8 0-1.1.1-.2.3-.2.4-.2.4-.1 1.2-.7 1.1-2-.1-1.5-1.1-2-1.7-2.2-.6 0-1.1.2-1.5.6-.6.6-.6 1.5-.6 1.6 0 .2.2.4.5.4zM28.3 19.3c-.3 0-.5.2-.5.5s.2.5.5.5.5-.2.5-.5-.3-.5-.5-.5z"/></svg>