<svg version="1.1" id="Layer_1" xmlns="http://www.w3.org/2000/svg" x="0" y="0" viewBox="0 0 40 40" xml:space="preserve" enable-background="new 0 0 40 40"><style>.st2{fill:#fff}.st25{fill:#3e3832}</style><g id="Mask"><circle id="path-1_1_" cx="20" cy="20" r="20" fill="#d1e4f4"/></g><defs><filter id="Adobe_OpacityMaskFilter" filterUnits="userSpaceOnUse" x="7.3" y="4.5" width="25.5" height="22.3"><feColorMatrix values="1 0 0 0 0 0 1 0 0 0 0 0 1 0 0 0 0 0 1 0"/></filter></defs><mask maskUnits="userSpaceOnUse" x="7.3" y="4.5" width="25.5" height="22.3" id="mask-2_1_"><g filter="url(#Adobe_OpacityMaskFilter)"><circle id="path-1_2_" class="st2" cx="20" cy="20" r="20"/></g></mask><path id="Fill-15" d="M7.7 18.7L7.3 15 19.4 4.8c.3-.3.8-.3 1.2 0l12.1 10.3-.5 4.5L20 26.8 7.7 18.7z" mask="url(#mask-2_1_)" fill="#0c576f"/><defs><filter id="Adobe_OpacityMaskFilter_1_" filterUnits="userSpaceOnUse" x="9.9" y="7" width="20.6" height="24.8"><feColorMatrix values="1 0 0 0 0 0 1 0 0 0 0 0 1 0 0 0 0 0 1 0"/></filter></defs><mask maskUnits="userSpaceOnUse" x="9.9" y="7" width="20.6" height="24.8" id="mask-2_2_"><g filter="url(#Adobe_OpacityMaskFilter_1_)"><circle id="path-1_3_" class="st2" cx="20" cy="20" r="20"/></g></mask><path id="Fill-4" d="M9.9 11.4l.1 20.5h20.5l-.1-23.6c0-.7-.6-1.3-1.3-1.3H14.6l-4.7 4.4z" mask="url(#mask-2_2_)" fill="#fff"/><defs><filter id="Adobe_OpacityMaskFilter_2_" filterUnits="userSpaceOnUse" x="9.9" y="7" width="4.6" height="4.4"><feColorMatrix values="1 0 0 0 0 0 1 0 0 0 0 0 1 0 0 0 0 0 1 0"/></filter></defs><mask maskUnits="userSpaceOnUse" x="9.9" y="7" width="4.6" height="4.4" id="mask-2_3_"><g filter="url(#Adobe_OpacityMaskFilter_2_)"><circle id="path-1_4_" class="st2" cx="20" cy="20" r="20"/></g></mask><path id="Fill-6" d="M14.6 7v3c0 .7-.6 1.3-1.3 1.3H10L14.6 7z" mask="url(#mask-2_3_)" fill="#c0c0be"/><defs><filter id="Adobe_OpacityMaskFilter_3_" filterUnits="userSpaceOnUse" x="12.4" y="14.2" width="7.7" height="1.3"><feColorMatrix values="1 0 0 0 0 0 1 0 0 0 0 0 1 0 0 0 0 0 1 0"/></filter></defs><mask maskUnits="userSpaceOnUse" x="12.4" y="14.2" width="7.7" height="1.3" id="mask-2_4_"><g filter="url(#Adobe_OpacityMaskFilter_3_)"><circle id="path-1_5_" class="st2" cx="20" cy="20" r="20"/></g></mask><path id="Stroke-8" d="M13 14.8h6.5" mask="url(#mask-2_4_)" fill="none" stroke="#8e9294" stroke-width="1.25" stroke-linecap="round"/><defs><filter id="Adobe_OpacityMaskFilter_4_" filterUnits="userSpaceOnUse" x="12.4" y="17" width="14.7" height="1.3"><feColorMatrix values="1 0 0 0 0 0 1 0 0 0 0 0 1 0 0 0 0 0 1 0"/></filter></defs><mask maskUnits="userSpaceOnUse" x="12.4" y="17" width="14.7" height="1.3" id="mask-2_5_"><g filter="url(#Adobe_OpacityMaskFilter_4_)"><circle id="path-1_6_" class="st2" cx="20" cy="20" r="20"/></g></mask><path id="Stroke-10" d="M13 17.7h13.5" mask="url(#mask-2_5_)" fill="none" stroke="#8e9294" stroke-width="1.25" stroke-linecap="round"/><defs><filter id="Adobe_OpacityMaskFilter_5_" filterUnits="userSpaceOnUse" x="12.4" y="19.9" width="14.7" height="1.3"><feColorMatrix values="1 0 0 0 0 0 1 0 0 0 0 0 1 0 0 0 0 0 1 0"/></filter></defs><mask maskUnits="userSpaceOnUse" x="12.4" y="19.9" width="14.7" height="1.3" id="mask-2_6_"><g filter="url(#Adobe_OpacityMaskFilter_5_)"><circle id="path-1_7_" class="st2" cx="20" cy="20" r="20"/></g></mask><path id="Stroke-12" d="M13.1 20.6h13.5" mask="url(#mask-2_6_)" fill="none" stroke="#8e9294" stroke-width="1.25" stroke-linecap="round"/><defs><filter id="Adobe_OpacityMaskFilter_6_" filterUnits="userSpaceOnUse" x="12.4" y="22.8" width="14.8" height="1.3"><feColorMatrix values="1 0 0 0 0 0 1 0 0 0 0 0 1 0 0 0 0 0 1 0"/></filter></defs><mask maskUnits="userSpaceOnUse" x="12.4" y="22.8" width="14.8" height="1.3" id="mask-2_7_"><g filter="url(#Adobe_OpacityMaskFilter_6_)"><circle id="path-1_8_" class="st2" cx="20" cy="20" r="20"/></g></mask><path id="Stroke-14" d="M13.1 23.4h13.5" mask="url(#mask-2_7_)" fill="none" stroke="#8e9294" stroke-width="1.315" stroke-linecap="round"/><defs><filter id="Adobe_OpacityMaskFilter_7_" filterUnits="userSpaceOnUse" x="12.4" y="25.4" width="14.8" height="1.3"><feColorMatrix values="1 0 0 0 0 0 1 0 0 0 0 0 1 0 0 0 0 0 1 0"/></filter></defs><mask maskUnits="userSpaceOnUse" x="12.4" y="25.4" width="14.8" height="1.3" id="mask-2_8_"><g filter="url(#Adobe_OpacityMaskFilter_7_)"><circle id="path-1_9_" class="st2" cx="20" cy="20" r="20"/></g></mask><path id="Stroke-16" d="M13.1 26.1h13.5" mask="url(#mask-2_8_)" fill="none" stroke="#8e9294" stroke-width="1.315" stroke-linecap="round"/><defs><filter id="Adobe_OpacityMaskFilter_8_" filterUnits="userSpaceOnUse" x="12.4" y="28.3" width="14.8" height="1.3"><feColorMatrix values="1 0 0 0 0 0 1 0 0 0 0 0 1 0 0 0 0 0 1 0"/></filter></defs><mask maskUnits="userSpaceOnUse" x="12.4" y="28.3" width="14.8" height="1.3" id="mask-2_9_"><g filter="url(#Adobe_OpacityMaskFilter_8_)"><circle id="path-1_10_" class="st2" cx="20" cy="20" r="20"/></g></mask><path id="Stroke-18" d="M13 29h13.5" mask="url(#mask-2_9_)" fill="none" stroke="#8e9294" stroke-width="1.315" stroke-linecap="round"/><defs><filter id="Adobe_OpacityMaskFilter_9_" filterUnits="userSpaceOnUse" x="7.3" y="15" width="21.4" height="16.8"><feColorMatrix values="1 0 0 0 0 0 1 0 0 0 0 0 1 0 0 0 0 0 1 0"/></filter></defs><mask maskUnits="userSpaceOnUse" x="7.3" y="15" width="21.4" height="16.8" id="mask-2_10_"><g filter="url(#Adobe_OpacityMaskFilter_9_)"><circle id="path-1_11_" class="st2" cx="20" cy="20" r="20"/></g></mask><path id="Fill-21" d="M8.2 31.8h20.4C29.2 31.8 7.3 15 7.3 15v15.9c0 .5.4.9.9.9" mask="url(#mask-2_10_)" fill="#d94c56"/><defs><filter id="Adobe_OpacityMaskFilter_10_" filterUnits="userSpaceOnUse" x="11.4" y="15" width="21.4" height="16.8"><feColorMatrix values="1 0 0 0 0 0 1 0 0 0 0 0 1 0 0 0 0 0 1 0"/></filter></defs><mask maskUnits="userSpaceOnUse" x="11.4" y="15" width="21.4" height="16.8" id="mask-2_11_"><g filter="url(#Adobe_OpacityMaskFilter_10_)"><circle id="path-1_12_" class="st2" cx="20" cy="20" r="20"/></g></mask><path id="Fill-22" d="M31.8 31.8H11.4c-.5 0 21.3-16.8 21.3-16.8v15.9c0 .5-.4.9-.9.9" mask="url(#mask-2_11_)" fill="#c52c35"/><path d="M31 10c-1.6 0-2.9.6-4 1.7-1 1.1-1.6 2.4-1.6 3.9.1 3 2.4 5.4 5.4 5.4h.1c3.1-.1 5.5-2.5 5.4-5.5 0-3.1-2.3-5.5-5.3-5.5zm-.1 8.6" fill="#ffa733"/><path class="st25" d="M30.9 17.3c-.4 0-.7.3-.7.7 0 .4.3.7.7.7.4 0 .7-.3.7-.7 0-.4-.3-.7-.7-.7zM30.9 16.4c.3 0 .5-.2.5-.5v-3.2c0-.3-.2-.5-.5-.5s-.5.2-.5.5v3.2c.1.3.3.5.5.5z"/></svg>