<svg version="1.1" id="Layer_1" xmlns="http://www.w3.org/2000/svg" x="0" y="0" viewBox="0 0 40 40" xml:space="preserve" enable-background="new 0 0 40 40"><style>.st2{fill:#fff}.st5{fill:#59514b}</style><g id="Symbols"><g id="synlig-og-lik-for-brukere"><g id="Group-79"><g id="Mask"><circle id="path-1_1_" cx="20" cy="20" r="20" fill="#d1e4f4"/></g><defs><filter id="Adobe_OpacityMaskFilter" filterUnits="userSpaceOnUse" x="4.3" y="3.7" width="38.8" height="42"><feColorMatrix values="1 0 0 0 0 0 1 0 0 0 0 0 1 0 0 0 0 0 1 0"/></filter></defs><mask maskUnits="userSpaceOnUse" x="4.3" y="3.7" width="38.8" height="42" id="mask-2_1_"><g filter="url(#Adobe_OpacityMaskFilter)"><circle id="path-1_2_" class="st2" cx="20" cy="20" r="20"/></g></mask><g id="mennesker_x2F_kvinne_x2F_-sideprofil" mask="url(#mask-2_1_)"><g transform="translate(12.351 3.695)" id="Group_1_"><g id="Group-2" transform="translate(4.863 2.432)"><g id="kvinne-hud"><path id="Combined-Shape" d="M13.2 8.5c.1 0 .2.1.3.2.4.2.7.7.7 1s0 .7-.3 1.4c-.5.9-1.1 1.2-1.6 1.3-.3 1-.8 1.8-1.5 2.5-.1.1-.3.2-.4.3l-.2.8-.1 1.7-.7 5.9H4.7l-.9-5.9-.1-1.7v-.1C1.8 15.2 0 13.2 0 9.4 0 4.5 2.6 0 6.9 0c2.6 0 4.7 1.4 5.7 3.5.7 1.4.6 3.1.6 4.9v.1z" fill="#e7e5e2"/></g><g id="mennesker_x2F_X_x2699__xFE0F__x2F__x2699__xFE0F_-ansikt-voksen_x2F_sideprofil_x2F_-blid" transform="translate(1.39 7.642)"><g id="Group-2-Copy" transform="translate(1.042)"><path id="Stroke-223" class="st5" d="M4.5 5.1s0 .1-.1.1c0 .1-.1.2-.2.3-.4.3-1 .5-1.7.4-.4 0-.6-.2-.8-.4-.1-.1-.2-.2-.2-.4V5c0-.1-.1-.2-.2-.1S1 5 1 5c0 .2.1.4.3.6.3.4.6.6 1.1.6.9.1 1.5-.1 2-.5.2-.2.4-.4.4-.5 0-.1 0-.2-.1-.2s-.2 0-.2.1z"/><path id="Fill-224" d="M.3 1.7c.4.2.8-.6.7-1.1C1 .5 1 .1.7 0 .5 0 .3.2.3.2 0 .6-.2 1.6.3 1.7" fill="#635e59"/><path id="Fill-225" class="st5" d="M5.2.6C5.2.5 5 0 4.8 0c-.3 0-.5.2-.5.2-.2.5-.2 1.4.3 1.5.5.1.7-.6.6-1.1z"/><path id="Stroke-65-Copy" class="st5" d="M1.7 2l-.1.1c-.2.1-.4.1-.6.1-.3 0-.4 0-.5.1-.3.3-.2.6.2.9.3.1.6.2.8.1.1 0 .2 0 .2.1s0 .2-.1.2c-.3.1-.7.1-1-.1-.6-.4-.8-1-.4-1.4.2-.2.5-.3.8-.2.1 0 .2 0 .3-.1 0 0 .1 0 .1-.1.1-.1.2-.1.2 0s.1.3.1.3z"/></g></g></g><g id="Group-1"><g id="mennesker_x2F_X_x2699__xFE0F__x2F__x2699__xFE0F_-kropp_x2F_voksen_x2F_Sideprofil_x2F_-rundhals" transform="translate(3.126 17.369)"><g id="Group" transform="translate(0 .977)"><g id="Mask_1_"><path id="path-3_1_" d="M11.5 0c.2 0 1.9.7 3.3 2.2 1.1 1.1 2 2.8 2 4.2v4.1c0 2.2-1.7 3.9-3.7 3.9H0v-8c0-1.3.9-3 1.9-4.2C3.3.7 5.2 0 5.3 0c0 1.6 1.4 3.3 3.1 3.3s3.1-1.7 3.1-3.3z" fill="#d8a25d"/></g><defs><filter id="Adobe_OpacityMaskFilter_1_" filterUnits="userSpaceOnUse" x="-11.2" y="-9.1" width="38.8" height="32.8"><feColorMatrix values="1 0 0 0 0 0 1 0 0 0 0 0 1 0 0 0 0 0 1 0"/></filter></defs><mask maskUnits="userSpaceOnUse" x="-11.2" y="-9.1" width="38.8" height="32.8" id="mask-4_1_"><g filter="url(#Adobe_OpacityMaskFilter_1_)"><path id="path-3_2_" class="st2" d="M11.5 0c.2 0 1.9.7 3.3 2.2 1.1 1.1 2 2.8 2 4.2v4.1c0 2.2-1.7 3.9-3.7 3.9H0v-8c0-1.3.9-3 1.9-4.2C3.3.7 5.2 0 5.3 0c0 1.6 1.4 3.3 3.1 3.3s3.1-1.7 3.1-3.3z"/></g></mask><g id="_x2D_40_x2F_-Bl책" mask="url(#mask-4_1_)"><g transform="translate(-11.19 -9.119)"><path id="Fill-28" fill="#66a4dc" d="M0 32.8h38.8V0H0z"/></g></g></g></g><g id="mennesker_x2F_X_x2699__xFE0F__x2F__x2699__xFE0F_kvinne_x2F_-h책r_x2F_-sideprofil--halvlangt"><g id="_x2D_-_x21B3__xD83C__xDF08_" transform="translate(1.042 .695)"><g id="mask-shape"><path id="path-5_1_" d="M14.6 9.7C8.7 8.3 7.2 5.7 7 5.5c-.4.3-2.5 2.1-2.8 4.2 0 0-.3 1.6 0 3.5s1.8 3.9 3.4 4.4v.2c-.8.3-2.3 1-3.4 2.1 0 0-.3.3-.4.3C2.2 19.7.9 19 0 17.9c1.7-1.9 2.5-4.4 2.5-7.7C2.5 4.3 5.6 0 10.8 0h.4c.9 0 1.7.2 2.5.5 3.7 1.4 5.7 4.9 5.7 9.6 0 3.3.8 5.9 2.5 7.7-1.2 1.1-2.6 1.9-4.2 2.3-1.1-1.2-2.7-2.1-3.7-2.4V17s.6-.3 1.3-1.4c.4-.7.7-1.2.8-1.8.8-.1 1.3-.5 1.6-1.4.3-1 .2-1.7-.5-2.1l-2.6-.6z" fill="#c86151"/></g><defs><filter id="Adobe_OpacityMaskFilter_2_" filterUnits="userSpaceOnUse" x="-1" y="-.7" width="24" height="25.4"><feColorMatrix values="1 0 0 0 0 0 1 0 0 0 0 0 1 0 0 0 0 0 1 0"/></filter></defs><mask maskUnits="userSpaceOnUse" x="-1" y="-.7" width="24" height="25.4" id="mask-6_1_"><g filter="url(#Adobe_OpacityMaskFilter_2_)"><path id="path-5_2_" class="st2" d="M14.6 9.7C8.7 8.3 7.2 5.7 7 5.5c-.4.3-2.5 2.1-2.8 4.2 0 0-.3 1.6 0 3.5s1.8 3.9 3.4 4.4v.2c-.8.3-2.3 1-3.4 2.1 0 0-.3.3-.4.3C2.2 19.7.9 19 0 17.9c1.7-1.9 2.5-4.4 2.5-7.7C2.5 4.3 5.6 0 10.8 0h.4c.9 0 1.7.2 2.5.5 3.7 1.4 5.7 4.9 5.7 9.6 0 3.3.8 5.9 2.5 7.7-1.2 1.1-2.6 1.9-4.2 2.3-1.1-1.2-2.7-2.1-3.7-2.4V17s.6-.3 1.3-1.4c.4-.7.7-1.2.8-1.8.8-.1 1.3-.5 1.6-1.4.3-1 .2-1.7-.5-2.1l-2.6-.6z"/></g></mask><g id="mennesker_x2F_X_x2699__xFE0F__x2F__x2699__xFE0F_-h책rfarge_x2F_-brunn" mask="url(#mask-6_1_)"><path fill="#8b5f26" d="M0 0h24v25.4H0z" transform="translate(-1.042 -.695)" id="h책rfarge_x2F_-brunn"/></g></g></g></g></g></g><defs><filter id="Adobe_OpacityMaskFilter_3_" filterUnits="userSpaceOnUse" x="-2" y="21.4" width="23.6" height="14.4"><feColorMatrix values="1 0 0 0 0 0 1 0 0 0 0 0 1 0 0 0 0 0 1 0"/></filter></defs><mask maskUnits="userSpaceOnUse" x="-2" y="21.4" width="23.6" height="14.4" id="mask-2_2_"><g filter="url(#Adobe_OpacityMaskFilter_3_)"><circle id="path-1_3_" class="st2" cx="20" cy="20" r="20"/></g></mask><path id="Fill-62" d="M-.6 35.8c-.8 0-1.4-.6-1.4-1.4V22.9c0-.8.6-1.4 1.4-1.4h20.8c.8 0 1.4.6 1.4 1.4v11.5c0 .8-.6 1.4-1.4 1.4H-.6z" mask="url(#mask-2_2_)" fill="#585b5c"/><defs><filter id="Adobe_OpacityMaskFilter_4_" filterUnits="userSpaceOnUse" x="0" y="34.8" width="23.6" height="1"><feColorMatrix values="1 0 0 0 0 0 1 0 0 0 0 0 1 0 0 0 0 0 1 0"/></filter></defs><mask maskUnits="userSpaceOnUse" x="0" y="34.8" width="23.6" height="1" id="mask-2_3_"><g filter="url(#Adobe_OpacityMaskFilter_4_)"><circle id="path-1_4_" class="st2" cx="20" cy="20" r="20"/></g></mask><path id="Fill-84" d="M22.8 35.8H.8c-.5 0-.8-.2-.8-.5s.4-.5.8-.5h21.9c.5 0 .8.2.8.5.1.3-.3.5-.7.5" mask="url(#mask-2_3_)" fill="#585b5c"/><defs><filter id="Adobe_OpacityMaskFilter_5_" filterUnits="userSpaceOnUse" x="-1" y="35.8" width="38" height="6.2"><feColorMatrix values="1 0 0 0 0 0 1 0 0 0 0 0 1 0 0 0 0 0 1 0"/></filter></defs><mask maskUnits="userSpaceOnUse" x="-1" y="35.8" width="38" height="6.2" id="mask-2_4_"><g filter="url(#Adobe_OpacityMaskFilter_5_)"><circle id="path-1_5_" class="st2" cx="20" cy="20" r="20"/></g></mask><path id="Rectangle" mask="url(#mask-2_4_)" fill="#d8d8d8" d="M-1 35.8h38V42H-1z"/></g></g></g></svg>