<svg width="24" height="24" viewBox="0 0 24 24" fill="none" xmlns="http://www.w3.org/2000/svg">
<path fill-rule="evenodd" clip-rule="evenodd" d="M0 1.5C0 0.6726 0.6732 0 1.5 0C2.3274 0 3 0.6726 3 1.5C3 2.3268 2.3274 3 1.5 3C0.6732 3 0 2.3268 0 1.5ZM23.0133 2.5H5.98668C5.44203 2.5 5 2.053 5 1.5C5 0.948 5.44203 0.5 5.98668 0.5H23.0133C23.558 0.5 24 0.948 24 1.5C24 2.053 23.558 2.5 23.0133 2.5Z" fill="#0067C5"/>
<path fill-rule="evenodd" clip-rule="evenodd" d="M0 6.5C0 5.6726 0.6732 5 1.5 5C2.3274 5 3 5.6726 3 6.5C3 7.3268 2.3274 8 1.5 8C0.6732 8 0 7.3268 0 6.5ZM20.0133 7.5H5.98668C5.44203 7.5 5 7.053 5 6.5C5 5.948 5.44203 5.5 5.98668 5.5H20.0133C20.558 5.5 21 5.948 21 6.5C21 7.053 20.558 7.5 20.0133 7.5Z" fill="#0067C5"/>
<path fill-rule="evenodd" clip-rule="evenodd" d="M0 11.5C0 10.6726 0.6732 10 1.5 10C2.3274 10 3 10.6726 3 11.5C3 12.3268 2.3274 13 1.5 13C0.6732 13 0 12.3268 0 11.5ZM12.0133 12.5H5.98668C5.44203 12.5 5 12.053 5 11.5C5 10.948 5.44203 10.5 5.98668 10.5H12.0133C12.558 10.5 13 10.948 13 11.5C13 12.053 12.558 12.5 12.0133 12.5Z" fill="#0067C5"/>
<path fill-rule="evenodd" clip-rule="evenodd" d="M0 16.5C0 15.6726 0.6732 15 1.5 15C2.3274 15 3 15.6726 3 16.5C3 17.3268 2.3274 18 1.5 18C0.6732 18 0 17.3268 0 16.5ZM9.01332 17.5H5.98668C5.44203 17.5 5 17.053 5 16.5C5 15.948 5.44203 15.5 5.98668 15.5H9.01332C9.55797 15.5 10 15.948 10 16.5C10 17.053 9.55797 17.5 9.01332 17.5Z" fill="#0067C5"/>
<path fill-rule="evenodd" clip-rule="evenodd" d="M23.0002 12H17.0002C16.4472 12 16.0002 12.448 16.0002 13C16.0002 13.553 16.4472 14 17.0002 14H20.5863L12.2932 22.293C11.9022 22.684 11.9022 23.316 12.2932 23.707C12.4883 23.902 12.7442 24 13.0002 24C13.2562 24 13.5123 23.902 13.7073 23.707L22.0002 15.414V19C22.0002 19.553 22.4472 20 23.0002 20C23.5522 20 24.0002 19.553 24.0002 19V13C24.0002 12.448 23.5432 12 23.0002 12Z" fill="#0067C5"/>
</svg>
