<svg width="35" height="40" fill="none" xmlns="http://www.w3.org/2000/svg"><path fill-rule="evenodd" clip-rule="evenodd" d="M26.81 0H1.863C.833 0 0 .947 0 2.118v35.765c0 .218.03.43.083.628.091.332.253.628.464.87.04.045.085.093.133.135A1.744 1.744 0 001.863 40H26.81c1.03 0 1.864-.949 1.864-2.117V2.118C28.674.948 27.84 0 26.81 0z" fill="#3E3832"/><mask id="a" maskUnits="userSpaceOnUse" x="2" y="2" width="24" height="36"><path fill-rule="evenodd" clip-rule="evenodd" d="M2.655 8.819v26.476c0 .95.664 1.72 1.484 1.72h19.866c.82 0 1.483-.77 1.483-1.72V4.705c0-.95-.664-1.72-1.483-1.72H8.152L2.655 8.82z" fill="#fff"/></mask><g mask="url(#a)"><path fill="#fff" d="M-.728-1.876h29.175v43.267H-.728z"/><path fill-rule="evenodd" clip-rule="evenodd" d="M8.152 2.985v4.063c0 .978-.707 1.77-1.58 1.77H2.656l5.497-5.833z" fill="#C9C9C9"/></g><path d="M6.185 15.463h7.731M6.185 20.875h14.69M6.185 26.287h12.757" stroke="#8E9294" stroke-width="3" stroke-linecap="round"/><path d="M27.938 21.648l-.11.001a6.302 6.302 0 00-4.39 1.885c-1.182 1.196-1.818 2.76-1.79 4.407.06 3.408 2.73 6.077 6.08 6.077l.11-.001c3.466-.06 6.239-2.883 6.18-6.292-.06-3.407-2.73-6.077-6.08-6.077z" fill="#3E3832"/><path fill-rule="evenodd" clip-rule="evenodd" d="M30.735 26.56l-3.957 3.785a.09.09 0 01-.063.024.103.103 0 01-.064-.024l-1.34-1.286a.083.083 0 010-.12l3.96-3.789a.09.09 0 01.062-.024c.025 0 .048.01.064.024l1.338 1.29a.084.084 0 010 .12z" fill="#fff"/><mask id="b" maskUnits="userSpaceOnUse" x="29" y="24" width="3" height="3"><path fill-rule="evenodd" clip-rule="evenodd" d="M29.482 24.27h2.173v2.078h-2.173V24.27z" fill="#fff"/></mask><g mask="url(#b)"><path fill-rule="evenodd" clip-rule="evenodd" d="M31.655 25.438a.421.421 0 01-.133.305l-.633.605-1.407-1.346.633-.605c.18-.17.467-.17.645 0l.762.729a.418.418 0 01.133.311z" fill="#fff"/></g><mask id="c" maskUnits="userSpaceOnUse" x="24" y="29" width="3" height="2"><path fill-rule="evenodd" clip-rule="evenodd" d="M24.74 29.159h1.797v1.627h-1.796V29.16z" fill="#fff"/></mask><g mask="url(#c)"><path fill-rule="evenodd" clip-rule="evenodd" d="M26.537 30.466l-1.796.32.436-1.627 1.36 1.307z" fill="#fff"/></g></svg>