<svg id="Layer_1" data-name="Layer 1" xmlns="http://www.w3.org/2000/svg" viewBox="0 0 24 32"><defs><style>.cls-1{fill-rule:evenodd}</style></defs><path class="cls-1" d="M19 17.36a2.34 2.34 0 01.35 1.79 2 2 0 01-.62 1.11 4.27 4.27 0 01-1 .56l-.64-.5a2 2 0 00.91-.87 1.12 1.12 0 000-1c-.28-.69-1.43-1.39-1.89-1.69a18.7 18.7 0 01-2-1.53 2.43 2.43 0 01-.88-2.29c0-.49.69-2.12 3.05-1.91a2.73 2.73 0 012.48 2.57l-1.33.14a3.29 3.29 0 00-.4-1.13 1.52 1.52 0 00-1.89-.33 1.14 1.14 0 00-.36 1.72 6.93 6.93 0 001 .82c.66.49 2.26 1.48 2.57 1.75a3.72 3.72 0 01.65.79z" transform="translate(-4)"/><path class="cls-1" d="M14.16 15.21l.63.52s-.74.44-.91.84a1.37 1.37 0 00.22 1.57 33.72 33.72 0 003.07 2.19 6.57 6.57 0 011.22 1.07 2.43 2.43 0 01.54 1.29 2.3 2.3 0 01-.55 1.76 2.24 2.24 0 01-1.06.73 3.82 3.82 0 01-2.4 0 2.65 2.65 0 01-1.4-1.06 3.8 3.8 0 01-.52-1.44l1.29-.19s.22 1.56 1.31 1.71c0 0 1.47.35 2-.8s-1.09-1.94-2.19-2.73-1.9-1.16-2.37-1.93a2.42 2.42 0 01-.15-2.5 2.14 2.14 0 011.27-1.03z" transform="translate(-4)"/><path d="M28 8.41a.78.78 0 00-.15-.22l-8-8a.78.78 0 00-.22-.15.75.75 0 00-.26 0H4.67A.67.67 0 004 .67v30.66a.67.67 0 00.67.67h22.66a.67.67 0 00.67-.67V8.67a.75.75 0 000-.26zm-8-6.13L25.72 8H20zm6.67 28.39H5.33V1.33h13.34v7.34a.67.67 0 00.66.66h7.34z" transform="translate(-4)"/></svg>